<?xml version="1.0" standalone="no"?>
<!DOCTYPE svg PUBLIC "-//W3C//DTD SVG 20010904//EN"
 "http://www.w3.org/TR/2001/REC-SVG-20010904/DTD/svg10.dtd">
<svg version="1.0" xmlns="http://www.w3.org/2000/svg"
 width="900.000000pt" height="900.000000pt" viewBox="0 0 900.000000 900.000000"
 preserveAspectRatio="xMidYMid meet">
<metadata>
Created by potrace 1.11, written by Peter Selinger 2001-2013
</metadata>
<g transform="translate(0.000000,900.000000) scale(0.100000,-0.100000)"
fill="#000000" stroke="none">
<path d="M3878 8218 c-13 -13 -29 -22 -36 -20 -7 2 -12 -1 -11 -5 3 -20 -2
-27 -11 -13 -8 12 -10 11 -10 -8 0 -16 -5 -22 -17 -20 -14 2 -18 -4 -17 -24 1
-18 -3 -25 -12 -21 -8 3 -11 10 -7 16 3 5 1 7 -5 4 -5 -4 -8 -16 -5 -26 3 -10
-1 -22 -8 -26 -8 -6 -10 -4 -4 5 5 9 4 11 -3 6 -9 -5 -9 -13 0 -29 10 -20 10
-21 -6 -8 -14 12 -16 12 -10 -4 6 -14 4 -16 -7 -10 -12 8 -12 6 0 -8 12 -16
12 -17 -5 -10 -16 6 -17 5 -6 -9 9 -11 10 -18 2 -23 -6 -3 -7 -12 -3 -18 5 -9
2 -8 -8 0 -13 10 -16 10 -16 -2 0 -8 3 -15 7 -15 4 0 7 -7 7 -15 0 -10 -4 -12
-12 -5 -7 6 -11 3 -12 -10 -1 -13 3 -17 15 -13 14 4 15 3 2 -6 -8 -5 -11 -13
-7 -17 4 -4 2 -13 -4 -21 -10 -11 -15 -11 -27 -1 -11 9 -9 4 4 -17 19 -29 19
-29 -1 -21 -16 6 -18 5 -7 -5 14 -15 16 -43 2 -34 -5 3 -10 1 -10 -4 0 -6 4
-11 8 -11 10 0 9 -36 -1 -46 -4 -4 -1 -14 6 -23 10 -14 10 -14 -5 -3 -11 9
-18 10 -23 2 -3 -5 -2 -10 3 -10 5 0 9 -7 9 -15 0 -12 -3 -12 -15 -2 -13 10
-14 9 -2 -12 11 -22 11 -23 -6 -17 -15 6 -17 5 -6 -5 6 -7 12 -21 12 -32 0
-12 -4 -16 -12 -11 -8 5 -7 0 2 -11 11 -14 12 -17 1 -10 -11 6 -13 1 -9 -24 3
-22 1 -30 -7 -27 -15 5 -15 -36 0 -46 6 -4 -1 -8 -15 -9 -14 0 -19 -3 -12 -6
6 -2 12 -14 12 -24 0 -14 -4 -18 -12 -13 -8 5 -7 0 2 -11 8 -10 10 -16 4 -12
-7 4 -14 0 -18 -8 -3 -8 2 -19 11 -24 14 -7 13 -10 -6 -16 -21 -6 -22 -7 -4
-22 10 -8 13 -12 6 -9 -6 4 -14 2 -18 -4 -3 -5 -1 -10 5 -10 7 0 6 -5 -2 -14
-7 -8 -17 -11 -22 -8 -5 3 -6 0 -1 -7 5 -9 10 -10 18 -2 6 6 15 11 20 11 11 0
-14 -25 -33 -33 -12 -4 -12 -6 -1 -6 11 -1 11 -4 0 -18 -8 -9 -9 -14 -3 -10 7
4 14 0 17 -8 4 -10 1 -12 -10 -8 -12 5 -14 1 -8 -17 5 -16 4 -20 -4 -16 -14 9
-10 -16 4 -26 6 -5 5 -8 -2 -8 -7 0 -13 -7 -13 -16 0 -9 -5 -12 -12 -8 -7 5
-8 3 -3 -6 6 -10 11 -9 21 5 8 10 16 16 19 13 3 -3 -1 -11 -9 -17 -8 -7 -14
-18 -12 -24 1 -7 1 -9 -1 -4 -9 14 -22 7 -16 -10 4 -11 3 -14 -5 -9 -7 4 -12
3 -12 -3 0 -5 6 -12 13 -14 8 -4 9 -8 2 -14 -16 -12 -18 -66 -2 -57 6 4 4 -2
-6 -13 -15 -17 -16 -25 -7 -42 8 -16 8 -21 -1 -19 -6 2 -14 -3 -17 -11 -2 -8
0 -11 6 -7 11 6 10 -8 -3 -36 -4 -10 -10 -16 -14 -13 -4 2 -8 -2 -8 -10 0 -8
4 -12 8 -10 10 7 5 -22 -6 -32 -4 -4 -5 -2 -1 4 5 9 2 11 -10 6 -11 -4 -13 -8
-6 -11 19 -6 34 -39 17 -39 -7 0 -11 7 -8 16 4 13 3 14 -5 2 -7 -9 -7 -23 -1
-38 6 -15 5 -22 -1 -18 -5 3 -8 -9 -6 -30 1 -20 -2 -39 -7 -42 -6 -4 -7 -1 -2
7 5 9 4 11 -4 6 -9 -6 -9 -11 1 -24 10 -12 10 -14 1 -8 -8 4 -13 1 -13 -8 0
-9 6 -16 13 -16 7 0 8 -3 2 -8 -5 -4 -17 -16 -25 -26 -14 -18 -13 -19 1 -14
13 5 16 2 12 -13 -3 -10 -10 -19 -15 -19 -5 0 -6 5 -3 10 10 16 -1 12 -15 -6
-8 -8 -9 -14 -4 -13 24 4 27 -3 5 -15 -20 -11 -21 -14 -7 -19 12 -5 15 -3 10
6 -4 6 -3 9 1 4 5 -4 9 -16 10 -27 1 -14 -2 -17 -11 -10 -8 8 -13 6 -18 -5 -3
-9 1 -18 9 -22 14 -5 13 -7 -1 -18 -10 -7 -14 -17 -10 -24 4 -6 2 -19 -6 -28
-11 -15 -11 -16 5 -10 14 5 16 3 8 -12 -6 -10 -7 -22 -3 -26 4 -5 1 -5 -6 -1
-7 4 -10 12 -7 17 4 5 -2 6 -11 2 -11 -4 -13 -8 -6 -11 16 -5 15 -39 -2 -45
-13 -5 -14 -46 -1 -66 3 -6 0 -11 -7 -11 -9 0 -9 -3 2 -10 8 -5 10 -10 4 -10
-7 0 -11 -8 -10 -17 0 -10 -5 -17 -12 -15 -8 1 -11 -2 -8 -7 4 -5 3 -11 -1
-14 -5 -2 -2 -2 5 -1 6 2 12 -1 12 -6 0 -9 -15 -14 -33 -11 -5 1 -6 -3 -2 -9
3 -6 10 -8 15 -5 4 3 10 -2 13 -10 4 -10 1 -12 -11 -8 -14 6 -15 4 -4 -9 10
-13 10 -18 1 -24 -8 -5 -9 -3 -4 7 8 12 6 12 -8 0 -9 -7 -14 -17 -11 -22 8
-14 16 -11 8 4 -6 9 -4 9 6 0 12 -11 11 -15 -6 -28 -19 -14 -19 -14 1 -15 l20
-1 -20 -9 c-14 -6 -15 -9 -5 -10 10 -1 9 -4 -5 -10 -18 -8 -18 -9 -2 -9 10 -1
15 -5 12 -11 -3 -5 -1 -10 6 -10 7 0 10 -3 7 -6 -4 -3 -17 0 -30 6 -19 10 -21
10 -10 -1 17 -18 15 -46 -4 -57 -13 -7 -14 -13 -6 -29 9 -15 7 -25 -5 -43 -10
-14 -11 -20 -3 -15 8 5 11 3 8 -6 -3 -8 -12 -13 -19 -11 -9 1 -8 -3 3 -11 20
-16 14 -28 -10 -20 -14 4 -14 3 -3 -5 16 -11 25 -46 10 -36 -5 3 -6 10 -3 16
4 7 2 8 -5 4 -6 -4 -9 -11 -6 -16 3 -5 0 -12 -6 -16 -9 -5 -7 -11 6 -21 16
-11 17 -13 3 -13 -9 0 -20 -5 -24 -12 -4 -6 -3 -8 3 -5 6 4 14 0 17 -9 3 -8 2
-12 -4 -9 -6 3 -10 3 -11 -2 0 -4 -2 -16 -4 -26 -2 -9 1 -15 5 -12 5 3 12 0
16 -6 4 -8 3 -9 -4 -5 -7 4 -12 2 -12 -3 0 -6 -4 -10 -9 -9 -5 2 -9 -1 -9 -7
0 -5 4 -9 8 -8 4 1 11 -4 14 -12 3 -8 1 -15 -5 -15 -6 0 -8 -4 -4 -9 3 -5 1
-12 -4 -16 -6 -3 -8 4 -6 16 3 14 1 19 -5 13 -13 -13 -19 -83 -8 -90 5 -3 1
-15 -9 -27 -10 -11 -13 -18 -7 -14 6 3 11 0 11 -8 0 -8 -4 -12 -8 -9 -5 2 -7
-12 -5 -32 2 -33 1 -35 -11 -18 -14 18 -14 18 -11 -1 2 -11 7 -23 13 -27 5 -4
6 -10 2 -14 -3 -4 -14 -1 -24 7 -12 10 -11 5 5 -17 19 -28 20 -33 6 -38 -8 -3
-13 -10 -10 -15 4 -5 -2 -12 -11 -14 -17 -4 -17 -5 0 -6 9 0 17 -6 17 -12 0
-5 -6 -7 -12 -3 -8 5 -7 0 2 -11 14 -17 13 -17 -10 -11 -20 6 -22 5 -8 -4 19
-12 14 -34 -14 -64 -20 -22 -23 -36 -7 -36 5 0 8 4 5 8 -2 4 4 8 15 8 18 0 18
-2 5 -12 -9 -6 -16 -17 -16 -23 0 -7 -4 -9 -10 -6 -17 11 -11 -7 8 -21 16 -13
16 -14 -2 -7 -13 4 -17 3 -13 -4 4 -6 -1 -19 -10 -29 -17 -17 -17 -18 0 -11
27 10 20 -11 -10 -28 -27 -15 -27 -15 -3 -9 l25 7 -25 -22 c-14 -13 -20 -20
-14 -17 6 3 11 -1 11 -9 0 -8 -4 -12 -9 -9 -4 3 -13 2 -19 -2 -8 -4 -7 -9 2
-15 11 -7 10 -12 -5 -26 -18 -16 -19 -16 -7 0 9 11 10 17 2 17 -6 0 -13 -11
-17 -25 -3 -14 -10 -23 -14 -20 -10 6 -7 -15 4 -35 7 -12 6 -13 -5 -2 -16 14
-33 16 -24 2 3 -5 1 -10 -5 -10 -6 0 -8 -5 -4 -12 5 -7 3 -8 -5 -3 -8 4 -25
-4 -44 -23 -18 -16 -41 -35 -52 -41 -19 -12 -16 -12 30 4 11 3 7 -1 -8 -10
-16 -9 -36 -14 -45 -10 -9 3 -13 3 -10 -1 4 -3 -2 -15 -12 -27 -17 -17 -21
-18 -36 -6 -15 12 -16 11 -9 -11 7 -25 7 -25 -10 -5 -9 11 -14 15 -11 9 3 -7
-2 -18 -11 -25 -12 -10 -14 -10 -9 -1 4 7 2 12 -8 12 -8 0 -18 -5 -22 -12 -5
-7 -3 -8 6 -3 9 5 11 4 6 -4 -4 -6 -13 -8 -19 -4 -19 12 -68 11 -63 -2 2 -7
-7 -10 -28 -7 -17 2 -39 3 -48 3 -9 0 -16 6 -14 12 1 7 1 9 -1 5 -2 -4 -12 -4
-21 -1 -14 4 -15 3 -2 -6 8 -5 12 -13 8 -16 -3 -3 -13 1 -21 9 -12 12 -17 13
-20 3 -4 -9 -6 -9 -6 1 -1 6 -6 12 -12 12 -5 0 -8 -4 -5 -9 4 -5 -5 -4 -18 2
-13 7 -22 16 -19 22 2 5 -5 -1 -17 -15 -16 -19 -20 -20 -16 -6 5 13 2 17 -9
12 -13 -5 -19 5 -16 26 0 3 -7 5 -17 3 -9 -1 -24 3 -32 9 -13 10 -13 9 -1 -6
7 -10 17 -16 21 -13 5 3 12 0 16 -7 4 -7 4 -10 -1 -6 -4 4 -15 2 -23 -5 -9 -6
-13 -7 -10 -2 4 6 -2 17 -14 24 -11 7 -18 8 -15 3 4 -5 -4 -8 -16 -7 -12 2
-21 7 -20 12 1 5 -9 9 -22 9 -13 0 -22 -3 -19 -7 2 -4 0 -11 -6 -14 -6 -4 -9
-3 -8 2 2 4 -5 19 -15 33 -9 13 -17 19 -17 13 0 -16 -51 -23 -57 -8 -2 8 -12
16 -20 19 -14 6 -14 4 -2 -11 13 -16 11 -16 -15 1 -22 14 -28 15 -24 4 4 -8 0
-15 -8 -15 -7 0 -11 4 -9 8 3 3 -3 13 -12 20 -14 12 -16 12 -11 -2 4 -9 1 -16
-8 -16 -7 0 -11 4 -8 9 3 4 -12 6 -33 4 -21 -2 -32 -2 -25 1 15 6 16 33 1 33
-5 0 -7 -4 -4 -10 3 -5 1 -10 -4 -10 -6 0 -11 5 -11 10 0 6 -5 10 -11 10 -5 0
-8 -4 -5 -8 3 -5 -1 -9 -9 -9 -8 0 -12 4 -9 9 3 4 -2 8 -11 8 -10 0 -13 5 -9
12 4 7 3 8 -4 4 -6 -4 -8 -14 -5 -24 5 -14 2 -13 -11 3 -10 11 -15 13 -11 5 4
-10 2 -9 -8 3 -17 20 -28 22 -23 5 1 -7 1 -10 -1 -5 -3 4 -10 4 -16 0 -6 -4
-8 0 -4 10 3 9 1 19 -5 23 -6 4 -8 3 -5 -3 4 -6 -3 -13 -16 -15 -31 -6 -49 1
-40 15 4 7 -2 5 -12 -3 -11 -9 -16 -10 -11 -2 4 6 2 12 -3 12 -6 0 -11 -6 -12
-12 0 -7 -4 -4 -9 7 -5 12 -9 14 -9 6 -1 -11 -4 -11 -14 3 -12 16 -14 16 -26
2 -14 -17 -31 -13 -31 7 0 7 4 6 11 -3 9 -13 10 -13 6 0 -2 8 -12 14 -22 12
-12 -2 -15 1 -9 10 6 10 5 11 -7 1 -12 -10 -18 -10 -28 0 -9 9 -14 9 -21 -3
-8 -12 -10 -12 -10 -1 0 9 -11 12 -39 9 -34 -3 -38 -1 -28 11 10 12 9 13 -1 7
-7 -4 -24 -9 -38 -11 -21 -2 -24 1 -19 19 4 13 3 16 -2 9 -5 -8 -14 -9 -23 -3
-9 6 -20 4 -29 -3 -12 -9 -13 -9 -7 1 4 6 4 12 -1 13 -4 0 -16 2 -26 4 -9 2
-15 -1 -12 -5 3 -5 1 -11 -5 -15 -6 -3 -10 4 -11 17 0 13 -3 17 -6 11 -2 -7
-11 -13 -19 -13 -8 0 -14 6 -15 13 0 6 -4 3 -9 -8 -7 -15 -9 -16 -9 -4 -1 9
-9 23 -18 30 -9 8 -14 10 -11 4 3 -5 -3 -19 -14 -30 -18 -19 -19 -19 -12 -1 5
14 4 17 -5 12 -8 -5 -14 -1 -18 13 -4 14 -12 19 -27 17 -11 -2 -27 1 -34 7 -9
7 -11 5 -6 -9 5 -18 5 -18 -10 0 -13 17 -18 18 -29 6 -10 -10 -9 -11 2 -5 10
5 12 4 7 -4 -4 -6 -12 -9 -17 -5 -5 3 -7 10 -4 15 9 13 -9 11 -24 -3 -11 -11
-12 -10 -6 0 5 9 1 12 -11 10 -11 -2 -22 -7 -25 -11 -3 -5 -9 -2 -12 6 -4 12
0 15 15 12 11 -3 17 -1 14 3 -9 8 -14 9 -57 11 -16 0 -28 5 -25 9 6 10 -25 9
-42 -2 -7 -4 -12 -2 -12 5 0 8 -5 7 -17 -2 -11 -10 -14 -10 -9 -1 9 15 -6 16
-22 0 -9 -9 -12 -9 -12 1 0 7 -5 9 -12 5 -7 -4 -8 -3 -4 5 4 6 13 8 19 5 7 -4
7 -1 -1 7 -11 12 -16 11 -29 -6 -13 -16 -15 -17 -10 -2 4 9 2 18 -3 18 -20 3
-25 4 -37 12 -9 6 -11 3 -7 -10 5 -16 4 -16 -10 1 -13 17 -18 18 -29 6 -10
-10 -9 -11 2 -5 10 5 12 4 7 -4 -10 -15 -26 -5 -27 17 0 14 -2 13 -9 -3 -6
-14 -9 -16 -10 -5 -2 8 -2 19 -1 23 1 5 -3 6 -9 2 -6 -3 -8 -10 -5 -15 3 -5
-5 -7 -17 -5 -13 3 -24 9 -26 15 -2 5 -8 10 -13 10 -6 0 -8 -4 -5 -8 7 -12
-25 -8 -48 4 -10 7 -34 8 -57 4 -21 -4 -39 -3 -39 1 0 5 5 9 12 9 6 0 8 3 4 7
-4 4 -16 -3 -28 -17 -11 -14 -17 -19 -13 -12 3 6 3 12 -2 13 -50 5 -60 3 -56
-8 3 -7 8 -11 12 -8 4 2 8 -2 8 -10 0 -11 -4 -12 -13 -4 -8 6 -14 6 -18 0 -3
-5 -24 -8 -46 -7 -21 2 -45 -1 -52 -7 -10 -7 -9 -8 3 -4 9 3 16 -1 16 -8 0 -8
-7 -11 -15 -7 -11 4 -13 2 -7 -9 7 -11 5 -11 -10 1 -11 9 -16 10 -11 3 4 -7 2
-13 -3 -13 -6 0 -11 5 -11 12 0 6 -3 8 -6 5 -4 -4 -1 -14 7 -23 12 -16 12 -17
-7 -12 -23 6 -30 -20 -10 -35 7 -6 6 -7 -4 -4 -26 8 -48 -11 -46 -38 2 -17 -2
-25 -13 -25 -14 -1 -13 -2 2 -11 12 -7 15 -15 9 -22 -5 -7 -8 -20 -7 -30 2 -9
-1 -15 -6 -11 -5 3 -6 10 -3 16 4 7 2 8 -4 4 -7 -4 -12 -3 -12 3 0 5 8 15 18
20 16 10 16 10 0 11 -10 0 -19 -3 -19 -7 -6 -32 -5 -52 1 -48 4 3 10 -2 14
-10 3 -8 0 -14 -6 -12 -17 3 -17 -71 -1 -85 7 -5 10 -14 8 -19 -3 -4 7 -15 22
-24 15 -9 20 -14 11 -11 -10 3 -20 0 -24 -6 -4 -7 -3 -8 4 -4 11 6 16 -5 13
-26 0 -4 6 -5 14 -2 9 4 15 0 15 -10 0 -9 7 -16 15 -16 8 0 15 -4 15 -10 0 -5
8 -7 18 -4 14 5 15 4 2 -5 -13 -10 -13 -12 0 -20 8 -5 18 -7 22 -5 4 3 8 1 8
-5 0 -5 -5 -11 -12 -13 -7 -3 -5 -7 6 -11 10 -4 15 -3 11 3 -3 6 -2 10 2 10 5
0 14 -9 21 -21 11 -17 16 -18 28 -8 8 6 17 9 21 5 3 -3 1 -6 -6 -6 -9 0 -9 -4
1 -14 9 -10 15 -11 20 -2 6 8 8 8 8 0 0 -7 7 -14 14 -17 11 -4 13 -1 9 11 -4
13 -2 12 10 -3 9 -11 17 -16 17 -10 0 5 8 -2 17 -15 10 -14 17 -29 15 -33 -1
-5 2 -6 8 -2 8 5 7 11 -1 21 -9 11 -8 14 5 14 9 0 16 -4 16 -9 0 -5 9 -11 20
-14 11 -3 18 -1 15 3 -3 5 -1 11 5 15 5 3 10 1 10 -4 0 -6 15 -11 33 -11 24 0
28 -3 17 -10 -12 -7 -10 -9 7 -7 12 0 19 5 16 10 -3 5 4 4 15 -2 12 -6 26 -19
32 -29 9 -16 11 -16 25 2 12 15 15 16 15 5 0 -9 6 -16 14 -16 8 0 12 7 9 16
-3 11 0 10 11 -3 12 -15 16 -16 16 -5 0 12 2 12 10 -1 9 -13 10 -13 10 0 0 13
2 13 9 0 6 -8 7 -19 3 -25 -3 -5 1 -4 9 2 12 10 18 10 28 0 10 -9 11 -9 6 5
-6 15 8 18 35 8 3 -1 8 -2 11 -2 4 1 5 -9 2 -21 -4 -19 -3 -20 7 -5 9 14 15
15 35 6 13 -6 23 -14 20 -17 -5 -9 52 -7 61 2 4 4 12 7 18 7 6 0 4 -5 -4 -10
-12 -8 -10 -10 8 -10 13 0 21 4 18 8 -3 5 1 9 9 9 8 0 12 -3 10 -7 -2 -4 3
-16 11 -26 9 -10 13 -14 10 -7 -4 6 -2 14 3 17 5 3 11 -1 14 -8 4 -10 16 -13
37 -11 22 3 29 1 24 -8 -5 -9 -4 -9 6 0 9 9 19 9 32 2 11 -6 26 -8 34 -5 7 3
21 -5 30 -17 9 -12 14 -15 11 -6 -3 9 1 16 9 16 7 0 11 -4 8 -9 -5 -8 10 -12
34 -9 8 1 21 -4 30 -11 14 -11 15 -10 9 6 -6 15 -5 17 6 8 8 -7 18 -8 22 -4 5
4 5 -2 1 -12 -7 -20 -7 -20 15 0 12 10 19 13 15 7 -4 -7 -2 -13 4 -13 6 0 9
-4 5 -9 -3 -5 -1 -12 4 -16 6 -3 8 3 6 15 -2 11 1 23 7 26 7 4 8 2 4 -4 -4 -7
-2 -12 3 -12 6 0 11 -6 11 -14 0 -16 39 -10 53 8 6 7 7 5 4 -5 -4 -13 2 -16
34 -14 21 1 39 -2 39 -8 0 -5 8 -3 17 4 15 12 16 12 10 -3 -3 -10 -1 -20 5
-24 7 -4 8 -3 4 4 -4 7 -1 12 9 12 9 0 13 -4 10 -10 -3 -6 -1 -10 4 -10 6 0
11 5 11 10 0 6 5 10 11 10 5 0 8 -4 5 -9 -3 -5 4 -12 17 -16 35 -12 41 -12 55
-2 8 6 12 5 12 -3 0 -10 4 -9 18 1 9 7 14 10 10 5 -9 -11 13 -33 34 -33 9 0
15 4 13 8 -3 4 1 9 9 12 7 3 13 0 12 -6 0 -7 2 -12 5 -12 3 0 14 -7 24 -15 17
-13 18 -13 13 0 -4 11 0 16 13 16 11 0 15 -4 9 -11 -5 -7 15 -11 63 -12 91 -3
97 -4 91 -15 -4 -5 -9 -7 -12 -4 -3 3 -12 0 -20 -7 -13 -10 -15 -9 -8 8 5 15
4 17 -5 8 -15 -14 -2 -38 14 -25 7 5 20 8 30 7 9 -2 17 2 17 8 0 6 7 2 16 -9
8 -10 13 -14 10 -8 -8 17 27 12 42 -6 8 -8 11 -10 8 -3 -4 6 -2 14 4 18 5 3
10 1 10 -5 0 -6 5 -8 10 -5 6 3 10 -1 10 -10 0 -9 5 -13 10 -10 6 4 8 11 5 16
-3 5 1 6 10 3 11 -5 13 -10 5 -19 -7 -8 -5 -12 5 -12 8 0 12 4 9 9 -3 5 7 6
23 2 15 -3 42 -7 58 -8 21 -2 30 -8 29 -20 -2 -23 5 -20 16 7 8 20 9 20 10 2
0 -17 2 -17 10 -5 6 10 10 11 10 3 0 -7 5 -13 11 -13 5 0 7 6 3 13 -6 9 -5 9
8 0 8 -7 18 -10 21 -7 4 4 4 -4 2 -17 l-4 -24 17 23 c16 21 20 22 31 8 8 -9 9
-16 3 -16 -6 0 -13 6 -15 13 -4 9 -6 9 -6 0 -1 -19 15 -24 43 -13 25 9 38 -3
14 -13 -10 -4 -10 -6 -1 -6 6 -1 15 4 18 9 5 8 11 7 21 -1 11 -9 14 -8 14 7 0
16 2 16 9 4 6 -8 8 -17 6 -20 -2 -4 2 -7 10 -7 8 0 12 4 9 9 -3 4 -1 8 5 8 5
0 11 -3 13 -7 2 -5 20 -16 40 -25 27 -12 36 -14 32 -4 -3 7 2 13 11 13 9 0 14
-5 12 -11 -3 -6 6 -11 18 -11 19 0 21 3 12 14 -10 12 -9 12 11 2 12 -7 20 -17
17 -24 -4 -7 1 -3 9 7 14 18 21 15 17 -6 0 -5 2 -7 7 -7 20 3 43 -2 38 -9 -6
-11 25 -9 43 3 10 5 12 4 7 -3 -9 -15 -1 -15 27 -1 l22 12 -20 -24 c-15 -18
-16 -20 -2 -10 9 7 17 10 17 5 0 -4 7 1 16 12 8 10 13 14 10 7 -4 -6 -2 -14 4
-18 6 -4 7 -11 4 -17 -4 -7 -2 -8 5 -4 6 4 9 11 6 16 -3 5 0 12 6 16 7 4 9 3
6 -3 -10 -16 18 -34 38 -26 11 4 16 2 12 -4 -3 -5 0 -10 8 -10 13 0 13 3 0 17
-13 14 -13 17 0 17 8 0 12 -4 9 -9 -3 -4 2 -8 11 -8 9 0 14 -4 11 -9 -3 -5 3
-11 15 -14 18 -5 18 -3 7 11 -11 14 -8 14 16 -2 16 -10 26 -14 23 -9 -4 5 0
10 8 10 11 0 12 -5 3 -21 -10 -19 -9 -20 5 -8 9 8 22 10 29 6 9 -6 9 -3 -1 9
-12 15 -12 17 3 11 9 -3 16 -13 16 -22 0 -13 3 -12 15 4 8 10 15 15 15 10 0
-5 7 -3 15 4 12 10 13 8 10 -10 -3 -17 -1 -20 13 -15 9 3 22 7 27 8 6 1 13 7
17 12 5 6 8 6 8 -1 0 -16 70 -11 81 7 8 10 9 7 4 -11 -6 -24 -5 -24 10 3 9 15
18 27 21 27 3 0 2 -4 -1 -10 -3 -5 -1 -10 4 -10 6 0 11 5 11 10 0 6 7 10 15
10 8 0 15 5 15 10 0 6 7 10 15 10 8 0 15 5 15 11 0 5 6 7 13 3 7 -5 7 -2 -2
10 -12 15 -12 17 0 14 8 -2 13 4 13 14 -1 10 1 17 5 16 19 -2 27 4 29 22 1 11
3 29 4 39 2 14 6 17 14 10 8 -7 15 -6 20 2 4 8 3 9 -4 5 -7 -4 -12 -3 -12 2 0
6 7 13 16 16 15 6 15 9 -1 34 l-18 27 23 -20 23 -20 -10 20 c-11 23 8 70 23
57 4 -4 3 0 -4 9 -6 9 -8 19 -4 23 4 4 8 12 8 17 1 5 2 10 4 12 6 8 5 45 -2
41 -4 -3 -8 0 -8 5 0 6 5 11 11 11 5 0 8 4 4 9 -3 6 3 15 12 21 15 9 14 10 -7
4 -22 -6 -23 -5 -11 9 7 9 18 14 24 10 6 -3 7 -1 3 6 -4 6 -11 9 -16 6 -5 -3
-12 0 -16 6 -4 7 -3 9 3 6 6 -4 14 0 17 9 9 22 8 26 -6 18 -7 -4 -8 -3 -4 5 4
6 12 8 18 5 7 -5 9 4 6 24 -2 17 -1 29 3 27 4 -3 10 2 13 11 5 12 2 15 -11 10
-17 -6 -17 -5 0 8 18 14 24 31 6 21 -6 -4 -5 2 2 13 7 12 17 18 23 15 5 -3 6
-1 2 6 -6 9 -12 9 -24 -1 -15 -11 -15 -11 -4 4 9 12 10 18 2 23 -8 5 -7 12 4
24 9 10 13 21 9 26 -5 4 -2 5 5 1 7 -4 10 -12 7 -17 -3 -5 1 -6 10 -2 9 3 13
9 7 12 -15 10 -22 50 -7 45 14 -6 18 43 6 61 -8 11 -7 23 3 47 4 9 9 25 10 35
2 10 10 17 19 17 9 -1 13 4 10 12 -3 8 -9 11 -14 8 -5 -3 -9 0 -9 5 0 6 6 11
14 11 8 0 18 4 21 10 3 5 0 7 -7 5 -9 -4 -14 2 -14 14 0 13 5 17 16 13 13 -5
13 -3 1 11 -12 15 -11 17 5 18 16 0 15 2 -4 9 -21 9 -22 11 -8 32 7 13 12 31
11 40 -2 9 2 15 8 12 15 -5 39 44 26 52 -6 3 -6 12 0 22 5 9 5 26 0 40 -5 14
-5 21 0 17 5 -3 12 -1 16 4 3 5 -3 14 -12 20 -11 6 -13 11 -5 11 7 0 10 6 7
13 -4 6 1 3 9 -7 13 -17 18 -18 29 -6 8 9 9 11 0 6 -7 -4 -17 2 -23 14 -9 16
-8 20 5 20 9 0 14 4 10 10 -3 5 -13 6 -23 3 -9 -3 -14 -3 -10 1 3 4 14 9 24
10 10 2 20 9 22 17 3 12 2 12 -6 0 -6 -8 -12 -9 -16 -3 -3 5 3 17 14 27 19 17
18 41 -1 29 -5 -3 -6 -10 -3 -16 4 -7 2 -8 -4 -4 -16 10 -16 11 18 46 32 32
31 37 -3 18 -20 -10 -21 -10 -9 5 8 9 11 20 8 25 -3 6 2 9 11 8 9 0 17 7 18
19 1 11 6 29 10 40 5 16 5 17 -4 5 -5 -8 -13 -12 -16 -8 -3 3 1 13 10 22 16
15 13 20 -10 17 -5 -1 -1 6 9 14 24 18 30 59 8 50 -12 -4 -13 -3 -2 10 10 12
16 13 29 3 14 -11 14 -11 4 3 -7 9 -10 19 -6 23 4 4 -1 4 -11 0 -14 -5 -17 -4
-12 4 4 7 14 12 22 12 12 0 12 4 4 20 -7 14 -7 20 0 20 5 0 10 -5 10 -12 0 -6
2 -9 5 -6 10 10 -7 38 -19 31 -7 -4 -7 -1 1 9 7 8 9 19 5 23 -4 5 -2 5 4 2 7
-4 15 0 18 9 3 8 2 12 -4 9 -16 -10 -12 7 8 29 14 17 14 19 0 8 -12 -10 -18
-10 -24 -1 -4 7 -3 9 3 6 13 -8 24 17 17 37 -3 8 0 17 7 22 8 5 10 3 4 -7 -7
-12 -6 -12 6 0 11 10 11 15 2 18 -7 3 -13 9 -13 15 0 6 6 8 13 5 10 -4 13 2 9
19 -2 14 -9 21 -16 17 -6 -4 -5 1 3 10 7 9 11 23 8 31 -4 11 -1 13 10 9 12 -5
14 -3 7 8 -14 23 -13 38 2 32 12 -4 13 0 4 23 -10 28 -9 28 6 9 l16 -20 -4 20
c-2 11 -7 23 -13 27 -5 4 -6 10 -2 14 3 4 15 1 24 -7 16 -13 17 -12 5 3 -7 9
-9 18 -5 20 4 3 3 4 -3 2 -6 -1 -11 4 -11 12 0 9 6 13 15 9 12 -4 12 -3 3 9
-8 9 -8 16 -2 20 5 4 7 18 5 33 -4 20 -2 24 8 17 8 -5 5 -1 -5 9 -19 17 -19
17 4 18 13 0 18 3 12 6 -7 2 -13 12 -13 21 0 15 2 15 10 2 8 -13 10 -13 10 2
0 9 -5 20 -10 23 -8 5 -7 11 0 20 7 8 8 20 4 27 -6 10 -5 10 7 1 11 -9 14 -7
15 13 1 13 -3 24 -10 24 -6 0 -4 5 4 10 11 7 12 14 4 27 -8 14 -6 22 7 35 10
9 20 13 24 10 3 -4 3 1 -1 11 -3 9 -11 14 -17 10 -6 -3 -7 -1 -3 5 4 7 1 12
-6 12 -7 1 -3 6 10 13 18 10 20 15 10 26 -8 8 -8 11 -2 8 17 -9 25 18 11 33
-9 10 -8 12 5 7 12 -4 15 -2 11 9 -3 7 1 14 8 14 7 0 9 3 6 6 -4 4 -12 2 -20
-4 -10 -8 -13 -6 -13 8 0 10 4 16 8 14 4 -3 8 -1 8 5 0 5 9 13 21 16 15 5 17
10 10 19 -6 7 -7 17 -3 21 4 5 1 5 -5 1 -7 -4 -13 -2 -13 3 0 6 4 11 8 11 4 0
8 12 9 28 1 49 3 53 16 46 9 -5 9 -4 0 6 -10 11 -9 16 5 27 9 8 12 12 6 9 -7
-3 -14 0 -16 7 -7 17 2 38 13 31 6 -3 8 5 5 20 -3 15 -1 24 5 21 5 -4 6 -12 3
-18 -4 -7 -3 -8 2 -4 12 12 12 30 -1 39 -6 5 -6 11 3 20 16 16 16 31 0 22 -7
-4 -6 1 3 11 13 13 15 25 9 45 -7 23 -5 28 6 23 8 -3 14 -1 14 5 0 6 -6 12
-12 15 -10 3 -10 8 1 18 12 12 13 12 6 0 -5 -9 -4 -12 3 -7 7 4 12 14 12 22 0
8 -4 13 -8 10 -5 -3 -9 1 -9 9 0 8 8 12 20 10 15 -3 16 -1 7 10 -8 10 -8 15 0
20 8 5 6 13 -5 25 -11 12 -13 20 -5 25 5 3 8 11 5 16 -3 5 1 6 10 3 10 -4 15
-2 13 7 -2 8 3 13 10 11 8 -1 11 2 7 8 -3 6 -10 8 -15 5 -5 -3 -11 -1 -15 5
-5 9 6 14 26 12 3 -1 6 6 6 14 0 17 -14 19 -19 2 -3 -7 -7 -5 -11 6 -5 11 -3
15 5 10 8 -5 9 -2 5 10 -6 14 -4 15 16 5 19 -11 20 -10 10 3 -7 8 -10 18 -6
21 3 4 0 14 -8 24 -12 14 -12 16 0 8 11 -6 13 -3 9 13 -5 16 -2 19 11 14 14
-5 14 -4 1 13 -12 15 -12 17 -1 10 11 -6 13 -4 8 9 -6 14 -3 17 9 12 14 -5 15
-4 5 8 -7 8 -10 21 -6 28 4 7 -1 4 -9 -6 -9 -11 -16 -15 -16 -9 0 7 5 15 10
18 6 4 7 11 4 17 -4 5 4 4 17 -3 22 -11 23 -11 9 5 -15 19 -22 46 -12 45 20
-3 25 2 12 11 -11 7 -11 10 -2 10 9 0 10 5 3 18 -12 22 2 47 20 38 8 -4 6 -1
-4 7 -13 11 -15 16 -5 20 11 3 11 8 0 26 -15 25 -5 28 13 4 12 -16 13 -16 12
2 0 38 3 46 15 39 7 -4 8 -3 4 5 -6 9 -11 9 -22 0 -9 -7 -14 -8 -14 -1 0 6 5
14 11 17 5 4 8 12 6 18 -2 7 3 17 11 23 12 9 12 13 2 19 -9 6 -11 4 -5 -5 5
-9 4 -11 -3 -6 -7 4 -8 15 -2 30 5 13 6 27 2 31 -4 4 4 4 18 1 14 -4 20 -4 14
1 -14 11 -27 46 -14 38 6 -3 10 -1 10 5 0 6 6 8 13 5 6 -4 4 0 -6 8 -18 15
-17 15 3 22 20 6 21 7 3 21 -16 13 -17 15 -2 27 15 11 15 14 1 27 -10 9 -12
15 -4 18 9 3 9 9 1 24 -10 18 -9 20 5 15 10 -4 15 -3 11 3 -3 6 -13 10 -21 10
-8 0 -12 5 -9 10 4 6 11 7 17 4 6 -4 8 -2 4 4 -3 5 -3 12 1 15 5 2 2 2 -6 0
-8 -2 -11 2 -7 12 3 8 0 15 -6 15 -6 0 -6 6 3 16 11 13 11 15 -2 12 -8 -1 -15
2 -16 7 0 6 3 9 9 7 5 -1 7 2 4 7 -4 5 0 12 6 15 7 3 1 3 -13 1 -23 -3 -26 0
-21 17 4 16 2 19 -9 13 -12 -8 -12 -6 0 8 9 12 10 17 2 17 -7 0 -9 5 -5 13 5
7 1 7 -12 -3 -10 -8 -16 -11 -12 -6 4 5 -1 16 -10 25 -10 9 -13 13 -7 9 7 -5
12 -2 12 7 0 7 -3 14 -6 13 -20 -2 -30 4 -36 22 -5 17 -10 18 -27 9 -18 -10
-20 -9 -15 5 10 25 -24 33 -140 35 -94 2 -104 0 -125 -21z m427 -426 c-3 -3
-11 0 -18 7 -9 10 -8 11 6 5 10 -3 15 -9 12 -12z m-704 -299 c13 -16 12 -17
-3 -4 -10 7 -18 15 -18 17 0 8 8 3 21 -13z m449 -973 c0 -5 -4 -10 -10 -10 -5
0 -10 5 -10 10 0 6 5 10 10 10 6 0 10 -4 10 -10z m-254 -1200 c0 -12 -4 -16
-9 -11 -5 5 -6 14 -3 20 10 15 12 14 12 -9z m-81 -376 c-17 -18 -31 -18 -16
-1 6 8 8 17 4 21 -4 4 0 4 10 1 14 -6 14 -9 2 -21z m-2385 -159 c0 -12 -19
-12 -23 0 -4 9 -1 12 9 8 7 -3 14 -7 14 -8z m180 -46 c0 -6 -4 -7 -10 -4 -5 3
-10 11 -10 16 0 6 5 7 10 4 6 -3 10 -11 10 -16z m1397 -44 c0 -8 -4 -12 -9 -9
-4 3 -8 0 -8 -5 0 -6 -5 -11 -12 -11 -6 0 -3 9 7 20 22 24 22 24 22 5z m-2857
-41 c0 -2 -7 -4 -15 -4 -8 0 -15 4 -15 10 0 5 7 7 15 4 8 -4 15 -8 15 -10z
m-5 -35 c-4 -5 -2 -9 3 -9 5 0 9 -7 9 -14 0 -11 -5 -12 -18 -6 -14 8 -17 20
-10 48 1 2 6 0 11 -3 6 -4 8 -11 5 -16z m2104 -12 c0 -9 -2 -9 -5 0 -3 7 -13
9 -22 6 -14 -4 -14 -3 -2 5 16 12 30 7 29 -11z m-1932 -212 c0 -8 -4 -12 -9
-9 -5 3 -6 10 -3 15 9 13 12 11 12 -6z m353 -116 c0 -6 -4 -7 -10 -4 -5 3 -10
11 -10 16 0 6 5 7 10 4 6 -3 10 -11 10 -16z m284 -45 c3 -8 2 -12 -4 -9 -6 3
-10 10 -10 16 0 14 7 11 14 -7z m2697 -98 c-6 -7 -8 -16 -4 -19 3 -4 1 -7 -5
-7 -15 0 -16 17 -2 25 6 4 7 11 4 17 -4 7 -2 8 5 4 8 -6 9 -12 2 -20z m-21
-61 c-5 -6 -6 -16 -2 -20 4 -5 1 -5 -6 -1 -9 6 -10 12 -3 20 7 9 7 17 -2 26
-10 12 -9 12 6 1 12 -10 14 -17 7 -26z m-1906 -3 c3 -5 -1 -9 -9 -9 -8 0 -12
4 -9 9 3 4 7 8 9 8 2 0 6 -4 9 -8z m86 -18 c0 -8 -5 -12 -10 -9 -6 4 -8 11 -5
16 9 14 15 11 15 -7z m440 -74 c0 -5 -2 -10 -4 -10 -3 0 -8 5 -11 10 -3 6 -1
10 4 10 6 0 11 -4 11 -10z m429 -113 c0 -9 -2 -8 -6 1 -2 6 -10 9 -15 6 -7 -4
-8 -2 -4 5 9 13 26 5 25 -12z m196 -37 c3 -6 -1 -7 -9 -4 -18 7 -21 14 -7 14
6 0 13 -4 16 -10z m155 -30 c0 -5 -4 -10 -10 -10 -5 0 -10 5 -10 10 0 6 5 10
10 10 6 0 10 -4 10 -10z"/>
<path d="M8043 8178 c-11 -15 -11 -28 0 -45 5 -8 4 -13 -3 -13 -6 0 -8 -5 -4
-12 11 -17 12 -48 3 -48 -9 0 -6 -26 4 -36 4 -4 2 -13 -4 -20 -7 -8 -7 -14 1
-19 8 -5 8 -10 0 -20 -8 -10 -8 -15 0 -20 8 -5 8 -10 0 -20 -8 -10 -8 -15 0
-20 8 -5 8 -10 0 -20 -8 -10 -8 -15 0 -20 8 -5 8 -10 0 -20 -8 -10 -8 -15 0
-20 8 -5 8 -10 0 -20 -8 -10 -8 -15 0 -20 8 -5 8 -10 0 -20 -8 -9 -8 -15 0
-20 7 -4 7 -12 0 -25 -7 -13 -7 -21 0 -25 7 -4 7 -13 0 -26 -8 -14 -7 -19 2
-19 8 0 9 -3 1 -11 -6 -6 -8 -23 -3 -45 5 -19 4 -32 -1 -28 -11 6 -12 -9 -2
-20 9 -9 11 -46 3 -46 -8 0 -6 -37 3 -46 3 -4 2 -15 -4 -25 -7 -13 -6 -19 1
-19 7 0 8 -6 0 -19 -6 -12 -6 -22 -1 -25 5 -3 5 -21 1 -40 -7 -30 -5 -35 14
-40 12 -3 34 -3 48 -1 15 3 30 1 33 -5 4 -6 12 -7 18 -3 18 11 77 11 77 0 0
-5 7 -4 15 3 12 10 15 10 15 -1 0 -9 3 -10 8 -3 9 13 82 13 82 1 0 -5 7 -4 15
3 12 10 15 10 15 -1 0 -9 3 -10 8 -4 8 12 111 14 128 3 6 -4 14 -5 18 -1 10
10 76 12 82 2 3 -5 13 -5 25 1 14 8 19 7 19 -2 0 -8 3 -9 8 -2 9 13 102 12
102 -1 0 -7 3 -7 8 0 4 6 14 10 22 10 8 0 18 -4 22 -10 5 -6 8 -6 8 2 0 12 47
12 66 1 5 -4 23 2 40 13 16 10 25 19 19 19 -7 0 -10 153 -10 440 l1 440 -447
0 c-346 0 -449 -3 -456 -12z"/>
<path d="M5795 7916 c-10 -24 -11 -118 -1 -134 4 -7 4 -12 -1 -12 -10 0 -9
-52 1 -68 4 -7 3 -12 -1 -12 -12 0 -10 -53 2 -62 6 -5 6 -8 -2 -8 -12 0 -12
-17 0 -37 5 -7 5 -13 0 -13 -10 0 -9 -92 1 -108 4 -7 3 -12 -1 -12 -12 0 -10
-53 2 -62 6 -5 6 -8 -1 -8 -6 0 -11 -7 -11 -15 0 -8 5 -15 10 -15 5 0 4 -6 -2
-14 -9 -11 -9 -16 0 -22 9 -5 465 -9 585 -5 21 1 43 41 22 41 -7 0 -7 5 1 13
8 10 7 17 -1 25 -9 9 -9 12 0 12 9 0 10 6 4 18 -9 19 -8 54 2 71 4 6 2 11 -5
11 -8 0 -9 4 0 13 8 10 7 17 -1 25 -9 9 -9 12 0 12 9 0 10 5 3 17 -6 11 -6 24
0 35 7 12 6 18 -2 18 -8 0 -9 4 0 13 8 10 7 17 -1 25 -9 9 -9 12 0 12 9 0 10
5 3 18 -6 11 -6 24 0 35 7 12 6 17 -2 17 -8 0 -9 4 0 13 8 10 7 17 -1 25 -9 9
-9 12 0 12 9 0 10 5 3 17 -6 11 -6 24 0 35 7 12 6 18 -2 18 -7 0 -8 4 -2 13
10 13 12 39 2 35 -3 -2 -14 4 -24 12 -17 13 -18 13 -10 0 6 -11 5 -12 -4 -4
-8 7 -25 9 -47 4 -19 -4 -36 -4 -39 1 -3 4 -17 4 -30 -1 -14 -5 -25 -6 -25 -1
0 12 -33 9 -42 -4 -5 -6 -8 -5 -8 3 0 10 -5 10 -21 1 -16 -8 -20 -8 -14 1 6 9
2 9 -14 1 -11 -7 -21 -8 -21 -3 0 5 -7 9 -15 9 -8 0 -15 -5 -15 -11 0 -6 -4
-6 -12 2 -8 8 -17 8 -31 1 -15 -8 -18 -8 -12 1 6 9 2 9 -14 1 -11 -7 -21 -8
-21 -2 0 12 -33 9 -42 -4 -5 -6 -8 -5 -8 2 0 9 -7 10 -25 3 -14 -5 -27 -5 -30
0 -3 5 -18 5 -35 0 -20 -6 -30 -5 -33 3 -3 7 -8 4 -12 -7z"/>
<path d="M6939 7903 c-7 -19 -7 -29 0 -31 7 -2 7 -12 0 -30 -7 -18 -7 -28 0
-30 8 -3 8 -10 1 -23 -8 -14 -7 -19 1 -19 8 0 8 -4 1 -13 -7 -8 -7 -18 -2 -27
5 -8 6 -19 2 -24 -9 -15 -9 -76 0 -76 4 0 3 -12 -3 -27 -7 -19 -6 -28 2 -33 7
-5 8 -10 1 -14 -7 -4 -7 -17 -2 -36 5 -17 5 -30 1 -30 -4 0 -7 -13 -6 -30 0
-16 4 -30 9 -30 5 0 2 -7 -5 -17 -11 -12 -11 -17 -2 -20 9 -3 9 -11 2 -31 -7
-18 -7 -28 0 -30 8 -3 8 -10 1 -23 -8 -14 -7 -19 1 -19 8 0 8 -4 1 -13 -7 -8
-7 -18 -2 -27 5 -8 6 -19 2 -24 -10 -16 -10 -46 0 -46 5 0 6 -5 2 -12 -5 -8 0
-9 14 -6 12 4 22 1 22 -4 0 -6 6 -5 15 2 10 8 15 9 15 1 0 -7 8 -8 23 -2 13 5
30 5 37 1 9 -5 20 -4 27 2 9 7 13 7 13 -2 0 -10 3 -10 15 0 12 10 15 10 15 0
0 -10 3 -10 15 0 8 7 15 9 15 4 0 -5 11 -9 25 -9 14 0 25 4 25 8 0 4 7 4 17
-1 9 -5 29 -6 44 -2 17 5 31 4 38 -3 8 -8 11 -7 11 2 0 10 3 11 13 2 10 -8 17
-7 25 1 9 9 12 9 12 -1 0 -11 3 -11 15 -1 8 7 15 9 15 4 0 -5 11 -9 25 -9 14
0 25 4 25 8 0 4 8 4 17 -2 9 -5 26 -5 38 -1 12 5 28 4 35 0 9 -5 20 -4 27 2 9
7 13 7 13 -2 0 -10 3 -10 15 0 12 10 15 10 15 0 0 -10 3 -10 15 0 11 9 15 9
15 1 0 -8 5 -9 19 -2 10 6 22 7 26 3 5 -4 5 -1 1 6 -4 7 -2 12 6 12 10 0 10 2
-1 9 -9 6 -10 10 -2 16 9 5 9 10 1 20 -8 10 -8 19 0 36 7 12 8 19 2 15 -12 -7
-10 39 1 51 4 3 2 12 -4 20 -9 10 -8 17 1 28 8 9 8 15 2 15 -11 0 -10 45 1 57
4 3 2 12 -4 19 -7 9 -7 19 1 35 7 12 8 19 2 15 -12 -7 -10 39 1 51 4 3 2 12
-4 20 -9 10 -8 17 1 28 8 9 8 15 2 15 -11 0 -10 45 1 57 4 3 2 12 -4 19 -7 9
-7 19 1 35 7 12 8 19 2 15 -12 -7 -10 39 1 51 4 3 2 12 -4 20 -9 10 -8 17 1
28 7 8 8 15 3 15 -6 0 -9 12 -7 26 2 21 -1 25 -17 21 -10 -3 -19 -2 -19 3 0
11 -33 7 -42 -5 -5 -6 -8 -5 -8 3 0 10 -5 10 -21 1 -16 -8 -20 -8 -14 1 6 9 2
9 -14 1 -11 -7 -21 -8 -21 -3 0 5 -7 9 -15 9 -8 0 -15 -5 -15 -11 0 -6 -4 -6
-12 2 -8 8 -17 8 -31 1 -15 -8 -18 -8 -12 1 6 9 2 9 -14 1 -11 -7 -21 -8 -21
-2 0 12 -33 9 -42 -4 -5 -6 -8 -5 -8 4 0 11 -3 11 -15 1 -9 -7 -15 -8 -15 -2
0 12 -33 10 -42 -3 -5 -6 -8 -5 -8 3 0 10 -5 10 -21 1 -16 -8 -20 -8 -14 1 6
9 2 9 -14 1 -11 -7 -21 -8 -21 -3 0 5 -7 9 -15 9 -8 0 -15 -5 -15 -11 0 -6 -4
-6 -12 2 -8 8 -17 8 -31 1 -15 -8 -18 -8 -12 1 6 9 2 9 -14 1 -11 -7 -21 -8
-21 -2 0 12 -33 9 -42 -4 -5 -6 -8 -5 -8 4 0 11 -3 11 -15 1 -9 -7 -15 -8 -15
-2 0 12 -33 10 -42 -3 -5 -6 -8 -5 -8 3 0 22 -20 13 -31 -15z"/>
<path d="M3650 7880 c0 -5 5 -10 11 -10 5 0 7 5 4 10 -3 6 -8 10 -11 10 -2 0
-4 -4 -4 -10z"/>
<path d="M3614 7749 c-3 -6 -2 -15 4 -21 6 -6 12 -6 17 3 6 8 4 10 -5 4 -10
-6 -12 -4 -7 8 7 19 2 23 -9 6z"/>
<path d="M4286 7678 c3 -5 10 -6 15 -3 13 9 11 12 -6 12 -8 0 -12 -4 -9 -9z"/>
<path d="M4907 7192 c-3 -4 -62 -7 -131 -6 -93 2 -124 -1 -119 -9 5 -9 3 -9
-8 0 -8 6 -24 11 -34 9 -19 -3 -20 -14 -23 -341 -2 -342 1 -372 33 -345 6 5
17 5 25 0 8 -5 21 -5 32 1 12 7 18 6 18 -1 0 -8 6 -8 20 0 14 8 20 8 20 0 0
-8 6 -8 20 0 11 6 20 7 20 3 0 -4 14 -8 30 -8 17 0 30 3 30 6 0 4 15 3 34 -1
18 -4 41 -3 50 2 10 6 16 5 16 -2 0 -8 6 -8 20 0 14 8 20 8 20 0 0 -8 6 -8 20
0 11 6 20 7 20 3 0 -4 14 -8 30 -8 17 0 30 3 30 7 0 4 11 4 23 -1 13 -5 30 -6
37 -1 7 4 23 5 34 0 11 -4 33 -4 48 1 16 4 28 4 28 -1 0 -5 7 -7 15 -4 8 4 13
10 10 14 -3 5 -1 11 5 15 6 4 7 12 3 18 -11 17 -12 97 -1 103 5 3 5 11 -1 18
-10 12 -10 34 2 52 3 6 3 14 -1 18 -12 12 -10 116 2 116 8 0 8 3 1 8 -14 9
-14 105 -1 114 8 6 8 8 0 8 -12 0 -13 45 -1 56 4 4 2 13 -4 21 -9 10 -8 17 2
30 9 10 9 14 2 10 -9 -6 -11 3 -8 33 2 23 0 40 -6 40 -6 0 -8 4 -5 8 3 5 -26
9 -65 9 -40 1 -67 -2 -64 -8 3 -5 -1 -6 -9 -3 -9 3 -13 11 -9 17 4 6 1 7 -8 1
-18 -11 -170 -13 -186 -2 -6 5 -14 5 -16 0z"/>
<path d="M6506 7192 c-2 -4 -44 -7 -91 -5 -61 2 -84 -1 -79 -9 5 -7 3 -8 -7
-2 -22 13 -161 16 -153 2 5 -7 2 -8 -7 -2 -22 13 -161 16 -153 2 5 -7 2 -8 -7
-2 -8 4 -47 9 -87 11 -55 2 -71 -1 -65 -10 5 -9 4 -9 -8 0 -17 14 -48 11 -58
-5 -8 -14 -7 -54 3 -70 4 -7 4 -12 -1 -12 -10 0 -9 -92 1 -108 4 -7 3 -12 -1
-12 -12 0 -10 -53 2 -62 6 -5 6 -8 -2 -8 -12 0 -12 -17 0 -37 5 -7 5 -13 0
-13 -10 0 -9 -92 1 -108 4 -7 3 -12 -1 -12 -12 0 -10 -53 2 -62 6 -5 6 -8 -2
-8 -12 0 -12 -17 0 -37 5 -7 5 -13 0 -13 -10 0 -9 -92 1 -108 4 -7 4 -12 -1
-12 -10 0 -9 -52 1 -68 4 -7 3 -12 -1 -12 -12 0 -10 -53 2 -62 7 -5 6 -8 0 -8
-7 0 -9 -14 -7 -34 4 -33 27 -44 44 -21 5 6 8 5 8 -3 0 -9 5 -10 18 -3 11 6
24 6 35 0 9 -6 17 -6 17 -1 0 5 7 9 15 9 8 0 15 -4 15 -9 0 -5 8 -4 18 1 11 6
24 6 35 0 12 -7 17 -6 17 2 0 8 4 9 13 0 10 -8 17 -7 25 1 9 9 12 9 12 0 0 -9
5 -10 17 -3 11 6 24 6 35 0 12 -7 18 -6 18 2 0 8 4 9 13 0 10 -8 17 -7 25 1 7
7 12 8 12 2 0 -10 76 -11 87 -1 3 4 14 2 24 -4 14 -7 19 -6 19 3 0 10 2 10 8
1 5 -8 13 -9 22 -3 8 5 21 5 32 -1 10 -5 18 -6 18 -1 0 5 7 9 15 9 8 0 15 -4
15 -9 0 -5 8 -5 18 -1 20 10 64 9 81 -1 6 -4 11 -2 11 4 0 6 5 8 12 4 19 -12
48 -12 48 -1 0 5 7 4 15 -3 11 -9 15 -9 15 -1 0 7 5 9 11 6 6 -4 23 -8 38 -9
26 -2 28 0 25 36 -2 24 1 38 9 38 9 0 9 2 0 8 -13 8 -12 29 1 51 6 9 5 12 -1
8 -13 -8 -12 132 1 152 6 9 5 12 -2 7 -7 -4 -10 4 -10 24 1 16 6 30 12 30 8 0
8 3 1 8 -16 10 -17 54 -2 46 8 -5 8 -3 0 7 -7 7 -13 24 -13 37 0 16 4 21 13
16 9 -6 9 -5 0 7 -13 16 -12 36 1 58 6 9 5 12 -2 7 -7 -4 -10 4 -10 24 1 16 6
30 12 30 8 0 8 3 1 8 -16 10 -17 54 -2 46 8 -5 8 -3 0 7 -7 7 -13 24 -13 37 0
16 4 21 13 16 9 -6 9 -5 0 7 -13 16 -12 36 1 58 6 9 5 12 -1 8 -6 -4 -10 9
-10 33 0 26 3 37 11 33 6 -4 5 0 -2 9 -7 9 -12 20 -11 24 5 27 -5 31 -78 29
-43 -1 -83 2 -90 7 -6 5 -14 5 -17 0z"/>
<path d="M8340 7095 c0 -6 -69 -10 -187 -10 l-187 0 0 -188 c-1 -115 3 -192 9
-196 12 -9 371 -8 380 1 7 7 8 67 2 135 -1 23 1 39 5 37 4 -3 8 0 8 5 0 6 -4
11 -8 11 -4 0 -8 9 -8 20 0 11 4 20 9 20 4 0 5 6 1 12 -11 18 -12 48 -2 48 5
0 4 10 -3 21 -8 16 -8 20 1 14 9 -6 9 -3 1 12 -6 11 -8 23 -5 26 3 3 1 14 -5
24 -6 10 -11 14 -11 8z"/>
<path d="M4145 7050 c-3 -5 1 -10 10 -10 9 0 13 5 10 10 -3 6 -8 10 -10 10 -2
0 -7 -4 -10 -10z"/>
<path d="M3430 6860 c0 -5 4 -10 9 -10 6 0 13 5 16 10 3 6 -1 10 -9 10 -9 0
-16 -4 -16 -10z"/>
<path d="M7155 6672 c-2 -2 -17 -4 -34 -4 -27 -1 -70 -28 -44 -28 5 0 9 -34 9
-75 0 -46 -3 -72 -9 -68 -6 4 -7 1 -1 -8 13 -20 14 -160 1 -152 -6 4 -7 1 -1
-8 13 -20 14 -160 1 -152 -6 4 -7 1 -1 -8 13 -20 14 -160 1 -152 -6 4 -7 1 -1
-8 5 -8 10 -27 10 -44 3 -55 4 -56 27 -54 12 2 28 0 35 -4 6 -5 12 -5 12 0 0
12 74 10 82 -2 5 -7 8 -7 8 0 0 11 121 12 139 1 6 -4 11 -4 11 1 0 12 114 10
122 -2 5 -7 8 -7 8 0 0 11 81 12 98 1 7 -4 12 -4 12 1 0 12 74 10 82 -2 5 -7
8 -7 8 0 0 6 23 9 54 8 43 -2 55 1 60 14 4 9 1 20 -6 25 -8 4 -9 8 -2 8 14 0
13 80 -1 80 -6 0 -6 3 0 8 15 10 15 344 1 354 -8 5 -8 8 0 8 6 0 10 23 10 55
0 32 -4 55 -10 55 -8 0 -8 3 -1 8 6 4 11 37 11 74 0 61 -2 67 -23 71 -13 2
-23 0 -23 -5 0 -5 -5 -6 -12 -2 -16 10 -118 11 -118 1 0 -5 -5 -5 -11 -1 -16
10 -99 11 -99 1 0 -5 -6 -5 -12 0 -19 11 -38 12 -38 2 0 -6 -5 -7 -11 -3 -16
10 -99 11 -99 1 0 -5 -5 -5 -11 -2 -10 7 -228 13 -234 7z"/>
<path d="M4008 6353 c7 -3 16 -2 19 1 4 3 -2 6 -13 5 -11 0 -14 -3 -6 -6z"/>
<path d="M3990 6280 c0 -5 7 -7 15 -4 8 4 15 8 15 10 0 2 -7 4 -15 4 -8 0 -15
-4 -15 -10z"/>
<path d="M8145 6278 c-11 -29 -12 -108 -1 -108 6 0 5 -4 -3 -9 -9 -6 -10 -11
-2 -15 7 -5 8 -13 2 -24 -5 -9 -5 -26 0 -40 5 -14 5 -21 0 -17 -6 3 -9 -4 -8
-15 1 -11 5 -20 10 -20 6 0 6 -5 0 -12 -10 -14 -10 -76 1 -103 3 -9 2 -13 -4
-10 -5 3 -8 -4 -7 -15 1 -11 5 -20 10 -20 4 0 5 -6 0 -12 -10 -17 -11 -29 -1
-56 5 -14 4 -21 -1 -17 -6 3 -9 -4 -8 -15 1 -11 5 -20 10 -20 5 0 5 -6 -1 -12
-12 -15 -12 -25 -1 -56 6 -14 5 -21 0 -17 -6 3 -9 -4 -8 -15 1 -11 5 -20 10
-20 4 0 5 -6 0 -12 -10 -17 -11 -29 -1 -56 4 -13 4 -21 0 -18 -10 6 -8 -81 1
-91 12 -11 507 -10 507 2 0 7 3 7 8 0 10 -14 65 -14 74 -1 5 7 8 7 8 1 0 -14
70 -15 70 -1 0 7 3 7 8 1 10 -14 65 -14 74 -1 6 8 8 8 8 0 0 -10 55 -13 64 -3
4 4 8 435 7 728 -1 100 -3 112 -16 101 -12 -10 -15 -10 -15 0 0 9 -3 10 -13 1
-8 -6 -17 -8 -21 -4 -9 10 -108 10 -128 1 -12 -6 -18 -5 -18 3 0 8 -4 8 -15
-1 -12 -10 -15 -10 -15 0 0 10 -3 10 -15 0 -12 -10 -15 -10 -15 0 0 10 -3 10
-15 0 -10 -8 -15 -9 -15 -1 0 7 -8 8 -24 1 -15 -5 -27 -5 -35 3 -8 8 -11 8
-11 -2 0 -7 -5 -9 -12 -5 -17 11 -110 12 -130 2 -12 -6 -18 -5 -18 3 0 8 -4 8
-15 -1 -12 -10 -15 -10 -15 0 0 10 -3 10 -15 0 -12 -10 -15 -10 -15 0 0 10 -3
10 -15 0 -10 -8 -15 -9 -15 -1 0 7 -8 8 -24 1 -15 -5 -27 -5 -35 3 -8 8 -11 8
-11 -1 0 -9 -6 -10 -17 -4 -19 9 -60 8 -70 -1 -3 -4 -14 -2 -24 4 -14 7 -21 6
-24 -3z"/>
<path d="M3965 6160 c-3 -5 1 -10 10 -10 9 0 13 5 10 10 -3 6 -8 10 -10 10 -2
0 -7 -4 -10 -10z"/>
<path d="M4660 5913 c0 -7 -3 -12 -7 -12 -20 3 -24 -2 -13 -16 9 -11 9 -15 1
-15 -8 0 -9 -5 -1 -19 7 -14 7 -22 0 -26 -8 -5 -7 -11 1 -21 9 -11 9 -14 0
-14 -8 0 -9 -5 -1 -19 7 -14 7 -22 0 -26 -8 -5 -7 -11 1 -21 9 -11 9 -14 0
-14 -8 0 -9 -5 -1 -19 5 -11 7 -22 3 -24 -10 -6 -9 -79 1 -95 4 -7 3 -12 -1
-12 -5 0 -9 -9 -9 -20 0 -11 4 -20 9 -20 4 0 5 -5 1 -12 -11 -17 -11 -58 -1
-58 5 0 5 -6 -1 -13 -7 -8 -7 -18 -2 -27 5 -8 6 -18 3 -23 -10 -17 -9 -52 2
-60 7 -6 6 -10 -2 -14 -9 -3 -10 -10 -3 -23 7 -13 7 -21 0 -25 -8 -5 -7 -11 1
-21 9 -11 9 -14 0 -14 -8 0 -9 -5 -1 -19 7 -14 7 -22 0 -26 -8 -5 -7 -11 1
-21 9 -11 9 -14 0 -14 -8 0 -9 -5 -1 -19 7 -14 7 -22 0 -26 -8 -5 -7 -11 1
-21 9 -11 9 -14 0 -14 -8 0 -9 -5 -1 -19 5 -11 7 -22 3 -24 -10 -6 -9 -79 1
-95 4 -7 3 -12 -1 -12 -5 0 -9 -9 -9 -20 0 -11 4 -20 9 -20 4 0 5 -6 0 -12
-11 -19 -11 -58 0 -58 6 0 5 -5 -1 -13 -7 -8 -7 -18 -2 -27 5 -8 6 -18 3 -23
-10 -17 -9 -52 2 -59 6 -5 5 -11 -3 -17 -8 -4 -14 -12 -14 -16 0 -4 6 -12 14
-16 7 -5 8 -9 2 -9 -6 0 -11 -7 -11 -15 0 -8 5 -15 11 -15 6 0 5 -4 -2 -9 -8
-4 -14 -12 -14 -16 0 -4 6 -12 14 -16 7 -5 8 -9 2 -9 -6 0 -11 -7 -11 -15 0
-8 5 -15 11 -15 6 0 5 -4 -2 -9 -8 -4 -14 -12 -14 -16 0 -4 6 -12 14 -16 7 -5
8 -9 2 -9 -6 0 -11 -7 -11 -15 0 -8 5 -15 11 -15 6 0 5 -4 -2 -9 -17 -11 -17
-21 0 -32 7 -5 8 -9 3 -9 -12 0 -13 -79 -1 -98 4 -7 3 -12 -1 -12 -5 0 -9 -9
-9 -20 0 -11 4 -20 9 -20 4 0 5 -5 1 -12 -11 -17 -11 -58 -1 -58 5 0 5 -6 -1
-13 -7 -8 -7 -18 -2 -27 5 -8 6 -18 3 -23 -10 -17 -9 -52 2 -60 7 -6 6 -10 -2
-14 -9 -3 -10 -10 -3 -23 7 -13 7 -21 0 -25 -8 -5 -7 -11 1 -21 9 -11 9 -14 0
-14 -8 0 -9 -5 -1 -19 6 -12 6 -22 1 -25 -10 -7 -9 -25 2 -43 5 -7 4 -13 0
-13 -5 0 -9 -9 -9 -20 0 -11 5 -20 11 -20 6 0 7 -3 0 -8 -5 -4 -10 -14 -10
-22 0 -8 5 -18 10 -22 6 -5 6 -8 -1 -8 -11 0 -11 -40 -1 -57 3 -5 2 -15 -3
-23 -5 -9 -5 -19 2 -27 7 -9 7 -13 -1 -13 -9 0 -9 -3 0 -12 14 -16 219 -18
219 -3 0 7 3 7 8 0 4 -5 21 -10 37 -10 17 0 33 5 37 10 5 7 8 7 8 0 0 -5 16
-10 35 -10 19 0 35 5 35 10 0 7 3 7 8 0 4 -5 21 -10 37 -10 17 0 33 5 37 10 5
7 8 7 8 0 0 -5 16 -10 35 -10 19 0 35 5 35 10 0 7 3 7 8 0 4 -5 21 -10 37 -10
17 0 33 5 37 10 5 7 8 7 8 0 0 -5 16 -10 35 -10 19 0 35 5 35 10 0 7 3 7 8 0
4 -5 21 -10 37 -10 17 0 33 5 37 10 5 7 8 7 8 0 0 -5 18 -10 40 -10 22 0 40 5
40 10 0 7 3 7 8 0 4 -5 25 -10 47 -10 22 0 43 5 47 10 5 7 8 7 8 0 0 -5 11
-10 25 -10 14 0 25 4 25 8 0 5 4 6 9 2 19 -11 71 -12 71 -1 0 7 3 7 8 1 4 -5
25 -10 47 -10 22 0 43 5 47 10 5 7 8 7 8 0 0 -5 11 -10 25 -10 14 0 25 4 25 8
0 5 4 6 9 2 19 -11 71 -12 71 -1 0 7 3 7 8 1 4 -5 37 -10 75 -10 38 0 67 4 67
10 0 7 3 7 8 0 4 -5 21 -10 37 -10 17 0 33 5 37 10 5 7 8 7 8 0 0 -5 16 -10
35 -10 19 0 35 5 35 10 0 7 3 7 8 0 4 -5 21 -10 37 -10 17 0 33 5 37 10 5 7 8
7 8 0 0 -5 18 -10 40 -10 22 0 40 5 40 10 0 7 3 7 8 0 4 -5 25 -10 47 -10 22
0 43 5 47 10 5 7 8 7 8 0 0 -5 11 -10 25 -10 14 0 25 4 25 8 0 5 4 6 9 2 17
-10 71 -13 71 -3 0 5 5 6 11 2 16 -9 109 -11 109 -1 0 5 4 5 10 2 5 -3 29 -7
53 -9 l44 -2 -2 42 c-1 24 2 41 7 38 4 -3 4 6 -1 19 -5 13 -6 30 -1 37 5 7 4
24 0 36 -6 15 -5 24 3 28 9 3 9 5 -1 5 -10 1 -10 6 -2 21 6 11 7 20 3 20 -4 0
-8 18 -8 39 -1 22 3 37 7 35 4 -3 4 6 -1 19 -5 13 -5 30 -1 37 5 8 7 17 4 21
-9 15 -12 89 -3 83 5 -3 5 5 0 19 -5 13 -5 30 -1 37 5 8 7 17 4 21 -9 15 -12
89 -3 83 5 -3 5 5 0 19 -5 13 -5 30 -1 37 5 8 7 17 4 21 -9 15 -12 89 -3 83 5
-3 5 5 0 19 -5 13 -6 30 -1 37 5 7 4 24 0 36 -6 15 -5 24 3 28 9 3 9 5 -1 5
-10 1 -10 6 -2 21 6 11 7 20 3 20 -4 0 -8 16 -8 35 0 19 3 35 7 35 4 0 4 11
-1 23 -5 13 -6 30 -1 37 5 7 4 24 0 36 -6 15 -5 24 3 28 9 3 9 5 -1 5 -10 1
-10 6 -2 21 6 11 7 20 3 20 -10 0 -10 41 1 58 4 7 2 12 -4 12 -7 0 -8 6 0 19
7 14 7 22 0 26 -8 5 -7 11 1 21 9 11 9 14 0 14 -9 0 -9 5 0 22 9 16 9 23 1 26
-9 3 -9 9 -2 23 6 10 7 19 3 19 -4 0 -8 18 -8 39 -1 22 3 37 7 35 4 -3 4 6 -1
19 -5 13 -6 30 -1 37 5 7 4 24 0 36 -6 15 -5 24 3 28 9 3 9 5 -1 5 -10 1 -10
6 -2 21 6 11 7 20 3 20 -10 0 -10 41 1 58 4 7 2 12 -4 12 -7 0 -8 6 0 19 7 14
7 22 0 26 -8 5 -7 11 1 21 9 11 9 14 0 14 -9 0 -9 5 0 22 9 16 9 23 1 26 -9 3
-9 9 -2 23 6 10 7 19 3 19 -4 0 -8 18 -8 39 -1 22 3 37 7 35 4 -3 4 6 -1 19
-5 13 -6 30 -1 37 5 7 4 24 0 36 -6 15 -5 24 3 28 9 3 9 5 -1 5 -10 1 -10 6
-2 21 6 11 7 20 3 20 -4 0 -8 16 -8 35 0 19 2 35 5 35 3 0 5 11 5 25 0 14 -4
25 -8 25 -5 0 -6 4 -3 9 3 5 -1 11 -8 14 -8 3 -17 1 -20 -6 -2 -7 -5 -7 -5 -2
-1 12 -82 12 -100 1 -6 -4 -11 -4 -11 1 0 4 -81 8 -180 8 -113 0 -180 -4 -180
-10 0 -7 -3 -7 -8 0 -4 6 -64 10 -142 10 -78 0 -138 -4 -142 -10 -5 -7 -8 -7
-8 0 0 6 -116 10 -327 10 -207 0 -331 -4 -335 -10 -5 -7 -8 -6 -8 0 0 12 -81
12 -99 1 -6 -4 -11 -4 -11 1 0 12 -354 10 -362 -2 -5 -7 -8 -6 -8 0 0 12 -81
12 -99 1 -6 -4 -11 -4 -11 1 0 4 -43 8 -95 8 -57 0 -95 -4 -95 -10 0 -5 -5 -3
-10 5 -6 10 -10 11 -10 3z"/>
<path d="M3220 5880 c0 -5 5 -10 11 -10 5 0 7 5 4 10 -3 6 -8 10 -11 10 -2 0
-4 -4 -4 -10z"/>
<path d="M3895 5801 c-3 -5 -2 -12 3 -15 5 -3 9 1 9 9 0 17 -3 19 -12 6z"/>
<path d="M7231 5528 c-8 -12 -8 -18 -1 -18 7 0 7 -6 1 -19 -6 -10 -7 -21 -4
-25 12 -12 12 -36 0 -36 -8 0 -7 -3 2 -9 9 -6 10 -11 2 -15 -6 -4 -8 -13 -4
-19 11 -17 10 -31 -2 -39 -6 -5 -6 -8 0 -8 6 0 9 -60 8 -165 -2 -173 -3 -169
44 -166 11 1 24 -3 28 -9 3 -5 12 -7 18 -3 19 12 147 11 147 -1 0 -8 3 -8 8 0
8 13 91 13 111 0 9 -6 12 -5 7 2 -7 12 61 12 80 0 6 -4 14 -4 18 -1 4 4 20 8
37 9 17 2 33 5 36 7 8 8 7 152 -1 165 -4 7 -3 12 1 12 12 0 10 53 -2 62 -7 5
-7 8 0 8 11 0 12 151 1 169 -4 6 -2 11 5 11 8 0 8 4 -1 15 -7 8 -9 15 -4 15
11 0 10 57 0 68 -4 4 -124 7 -266 7 -235 0 -259 -1 -269 -17z"/>
<path d="M3093 5225 c0 -8 4 -15 9 -15 4 0 8 4 8 9 0 6 -4 12 -8 15 -5 3 -9
-1 -9 -9z"/>
<path d="M454 4979 c-8 -14 14 -19 25 -6 8 10 7 14 -5 14 -8 0 -17 -4 -20 -8z"/>
<path d="M230 4948 c0 -4 4 -8 9 -8 6 0 12 4 15 8 3 5 -1 9 -9 9 -8 0 -15 -4
-15 -9z"/>
<path d="M3703 4883 c0 -9 4 -10 14 -2 7 6 13 12 13 14 0 1 -6 2 -13 2 -8 0
-14 -6 -14 -14z"/>
<path d="M1116 4847 c3 -10 9 -15 12 -12 3 3 0 11 -7 18 -10 9 -11 8 -5 -6z"/>
<path d="M3685 4850 c-3 -5 -1 -10 4 -10 6 0 11 5 11 10 0 6 -2 10 -4 10 -3 0
-8 -4 -11 -10z"/>
<path d="M1693 4725 c0 -8 4 -12 9 -9 5 3 6 10 3 15 -9 13 -12 11 -12 -6z"/>
<path d="M3663 4695 c0 -8 4 -12 9 -9 5 3 6 10 3 15 -9 13 -12 11 -12 -6z"/>
<path d="M3653 4658 c-12 -21 -12 -37 1 -32 6 2 12 13 12 24 0 23 -2 24 -13 8z"/>
<path d="M2755 4610 c-3 -5 -1 -10 4 -10 6 0 11 5 11 10 0 6 -2 10 -4 10 -3 0
-8 -4 -11 -10z"/>
<path d="M3606 4481 c-3 -4 6 -13 19 -19 30 -14 31 -12 5 10 -10 10 -22 14
-24 9z"/>
<path d="M730 4246 c0 -8 4 -17 9 -20 5 -4 7 3 4 14 -6 23 -13 26 -13 6z"/>
<path d="M1875 4000 c3 -5 8 -10 11 -10 2 0 4 5 4 10 0 6 -5 10 -11 10 -5 0
-7 -4 -4 -10z"/>
<path d="M3486 3914 c-5 -13 -4 -14 7 -6 8 7 18 8 22 4 5 -4 5 -1 1 6 -10 17
-23 15 -30 -4z"/>
<path d="M3130 3745 c0 -8 4 -15 10 -15 5 0 7 7 4 15 -4 8 -8 15 -10 15 -2 0
-4 -7 -4 -15z"/>
<path d="M3204 3742 c4 -3 14 -7 22 -8 9 -1 13 0 10 4 -4 3 -14 7 -22 8 -9 1
-13 0 -10 -4z"/>
<path d="M3250 3742 c0 -5 7 -9 15 -9 8 0 12 4 9 9 -3 4 -9 8 -15 8 -5 0 -9
-4 -9 -8z"/>
<path d="M3669 3646 c9 -11 5 -13 -21 -12 -18 1 -38 4 -44 8 -6 4 -11 1 -11
-7 0 -8 5 -12 11 -9 6 3 3 -1 -6 -9 -10 -8 -14 -18 -10 -22 4 -5 1 -5 -6 -1
-7 4 -10 12 -7 17 11 16 -7 10 -22 -8 -14 -17 -14 -17 -9 2 l6 20 -15 -20 c-9
-11 -18 -19 -20 -17 -3 1 -5 -1 -4 -4 2 -14 -56 -64 -70 -59 -12 5 -12 3 0
-12 9 -11 10 -14 2 -9 -8 4 -13 1 -13 -9 0 -9 -4 -13 -10 -10 -5 3 -10 -1 -10
-10 0 -9 -4 -13 -10 -10 -5 3 -10 1 -10 -4 0 -6 6 -11 13 -11 6 -1 1 -7 -12
-14 -15 -8 -20 -16 -12 -20 6 -4 11 -2 11 4 0 6 5 8 11 4 8 -5 6 -10 -5 -16
-14 -8 -15 -12 -5 -24 10 -12 10 -15 -2 -12 -8 2 -13 -4 -12 -15 1 -14 -4 -18
-19 -14 -15 4 -17 3 -7 -9 6 -7 15 -11 20 -8 5 3 9 0 9 -7 0 -6 -8 -9 -19 -6
-14 3 -18 1 -14 -9 3 -8 10 -11 15 -8 6 4 3 -5 -7 -19 -10 -16 -12 -27 -6 -31
11 -7 3 -37 -13 -48 -8 -5 -7 -8 1 -8 16 0 12 -38 -4 -45 -10 -3 -11 0 -3 15
8 15 7 18 -3 15 -14 -6 -21 -45 -7 -45 4 0 10 -7 14 -15 4 -13 2 -14 -14 -5
-16 9 -18 8 -14 -5 4 -8 11 -15 17 -15 6 0 1 -7 -11 -16 -21 -14 -22 -41 -1
-29 5 4 9 2 9 -3 0 -6 -7 -13 -15 -16 -13 -5 -14 -10 -4 -28 10 -20 10 -21 -2
-11 -12 9 -14 4 -15 -29 -1 -36 1 -39 13 -22 7 10 13 13 13 7 0 -14 -27 -36
-37 -30 -4 3 -8 -6 -8 -19 0 -17 4 -23 15 -18 8 3 5 -4 -8 -16 -22 -20 -22
-23 -6 -34 12 -9 14 -15 5 -20 -6 -4 -8 -12 -5 -18 4 -7 2 -8 -5 -4 -9 6 -9
12 1 24 12 15 11 16 -4 3 -10 -7 -15 -18 -12 -23 4 -6 0 -15 -7 -20 -10 -7 -7
-7 9 -3 13 4 22 2 22 -4 0 -6 -7 -11 -15 -11 -22 0 -33 -29 -25 -67 7 -30 6
-33 -8 -21 -14 11 -13 8 2 -16 10 -16 13 -25 7 -22 -6 4 -11 2 -11 -4 0 -6 -4
-8 -10 -5 -6 3 -7 -1 -3 -10 4 -12 8 -13 13 -5 5 8 9 7 13 -5 4 -9 3 -13 -3
-10 -6 3 -10 1 -10 -5 0 -6 -4 -9 -9 -5 -5 3 -13 0 -17 -6 -4 -8 -3 -9 4 -5 7
4 12 2 12 -4 0 -6 5 -8 13 -4 8 6 8 3 -1 -9 -8 -9 -10 -22 -6 -28 4 -7 3 -9
-2 -6 -15 9 -34 -7 -39 -32 -2 -12 0 -19 5 -16 12 7 9 -36 -3 -52 -5 -7 -14
-10 -20 -6 -6 3 -7 1 -3 -6 4 -6 12 -8 18 -5 6 4 8 -1 3 -15 -4 -13 -1 -29 6
-39 8 -9 0 -6 -16 8 -16 14 -24 18 -17 8 9 -11 10 -18 2 -23 -8 -5 -7 -14 4
-30 14 -21 14 -23 -4 -18 -12 3 -20 0 -20 -6 0 -7 4 -10 9 -7 5 3 11 -3 14
-13 3 -14 1 -18 -9 -14 -10 4 -13 -1 -10 -18 2 -13 -4 -33 -13 -43 -9 -11 -11
-16 -5 -13 7 4 14 -2 17 -14 5 -17 3 -18 -10 -7 -14 12 -15 11 -5 -9 9 -17 9
-25 -2 -35 -10 -11 -11 -19 -4 -33 7 -12 7 -16 0 -11 -6 3 -13 2 -17 -4 -3 -5
-1 -10 6 -10 10 0 10 -3 1 -12 -16 -16 -16 -51 1 -43 6 4 4 0 -5 -8 -10 -8
-18 -20 -18 -26 0 -7 -6 -9 -12 -6 -7 4 -4 -1 6 -9 16 -13 17 -16 4 -16 -9 0
-19 -7 -22 -16 -5 -14 -4 -15 9 -4 9 7 18 10 22 6 3 -3 1 -6 -6 -6 -8 0 -11
-6 -7 -16 3 -9 2 -12 -5 -9 -13 9 -8 -27 6 -37 6 -4 2 -8 -8 -8 -9 0 -16 -3
-16 -7 4 -25 -2 -43 -13 -37 -7 4 -8 3 -4 -4 4 -6 14 -9 24 -6 10 4 13 3 6 -3
-6 -4 -10 -16 -9 -25 2 -12 -3 -15 -18 -13 -21 4 -20 3 3 -15 14 -11 18 -18
10 -15 -11 4 -15 -2 -16 -20 -1 -14 3 -25 9 -25 6 0 7 -3 4 -6 -4 -4 -13 -2
-20 4 -11 9 -13 8 -12 -6 0 -9 5 -23 9 -31 5 -7 3 -18 -3 -24 -6 -6 -11 -19
-11 -30 0 -11 -4 -15 -12 -11 -7 5 -8 3 -2 -7 13 -22 12 -58 -2 -70 -8 -6 -12
-15 -9 -19 3 -5 1 -11 -5 -15 -7 -4 -6 -14 2 -28 9 -19 9 -20 -3 -10 -11 9
-14 6 -13 -16 0 -15 3 -32 7 -38 3 -5 0 -10 -8 -10 -8 0 -15 5 -15 10 0 6 -2
8 -5 5 -10 -10 7 -38 19 -31 7 4 7 1 -1 -9 -7 -8 -10 -18 -6 -22 4 -4 -1 -4
-10 0 -12 4 -17 2 -15 -7 2 -8 -3 -13 -10 -11 -8 1 -11 -2 -7 -8 5 -8 11 -7
21 1 9 7 14 8 14 1 0 -6 -5 -14 -11 -18 -8 -4 -7 -9 2 -15 10 -6 11 -9 2 -9
-7 0 -13 -9 -13 -21 0 -11 4 -18 8 -15 5 3 9 -1 9 -8 0 -8 -7 -12 -15 -8 -10
3 -13 1 -8 -7 4 -6 2 -19 -5 -27 -10 -12 -10 -17 1 -27 9 -9 11 -9 6 0 -3 6
-2 14 2 17 5 3 8 -7 7 -22 -1 -15 3 -30 9 -34 8 -5 7 -8 -1 -8 -7 0 -10 -7 -6
-17 5 -12 3 -14 -8 -8 -8 5 -5 -2 5 -14 20 -22 20 -22 0 -16 -18 6 -18 6 -2
-8 14 -11 15 -16 5 -26 -9 -10 -8 -12 7 -9 12 2 20 -3 21 -15 2 -9 -1 -15 -6
-11 -5 3 -6 11 -3 17 4 7 3 9 -1 4 -14 -12 -13 -46 1 -40 7 2 17 -5 23 -16 13
-24 14 -42 1 -21 -7 12 -9 10 -7 -7 1 -21 2 -22 21 -5 11 9 16 11 12 4 -4 -7
-1 -15 9 -18 11 -5 13 -10 5 -19 -9 -11 -6 -12 12 -7 21 5 22 4 9 -11 -12 -15
-12 -17 3 -11 9 4 16 1 16 -6 0 -8 8 -10 23 -7 22 6 22 6 2 -10 -14 -11 -15
-14 -4 -10 10 3 27 -4 40 -16 18 -17 21 -18 16 -4 -3 9 -2 17 2 17 5 0 12 -7
15 -16 7 -17 61 -17 85 0 11 8 13 8 7 -1 -5 -10 3 -12 33 -11 23 1 41 5 41 10
0 4 6 7 13 6 7 -2 11 6 9 22 -4 24 -3 25 12 5 8 -11 16 -14 16 -7 0 6 7 12 15
12 15 0 41 38 37 53 -1 5 2 6 8 2 6 -3 7 -11 4 -17 -4 -7 -2 -8 4 -4 7 4 12
14 12 23 0 10 5 13 17 9 10 -4 14 -4 10 0 -4 4 -1 14 5 23 10 13 10 14 -2 3
-8 -6 -18 -12 -24 -12 -5 0 5 11 23 24 21 16 28 26 19 29 -7 3 -2 6 12 6 20 1
22 3 10 11 -13 9 -13 10 0 10 13 0 13 1 0 10 -15 9 -13 11 13 14 6 1 11 10 9
20 -2 12 1 15 8 11 9 -5 8 0 -1 16 -11 22 -11 23 4 11 13 -11 15 -10 10 7 -3
12 -10 18 -17 14 -6 -3 -5 0 2 8 11 12 14 12 23 -1 7 -11 8 -6 3 15 -4 17 -11
33 -16 36 -5 3 -2 9 7 12 9 4 13 3 10 -2 -3 -5 0 -13 6 -17 8 -4 9 -3 5 4 -4
7 -2 12 5 12 7 0 4 7 -7 16 -18 15 -18 15 5 10 18 -4 21 -2 12 7 -17 17 -13
37 7 30 15 -5 14 -4 -2 9 -14 11 -16 17 -7 22 9 6 9 11 -1 24 -8 10 -8 13 -1
9 15 -10 22 13 12 41 -9 24 0 29 21 10 12 -11 12 -10 2 3 -6 9 -8 20 -4 24 4
5 2 5 -4 2 -6 -3 -11 0 -11 8 0 8 5 11 10 8 6 -4 7 4 3 20 -3 14 -1 29 4 32 6
4 8 10 5 15 -3 4 2 11 11 14 14 5 14 8 0 28 -11 16 -13 25 -4 35 6 7 7 13 3
13 -4 0 -2 7 5 15 7 8 16 13 20 10 5 -3 11 -1 15 4 3 6 -3 8 -15 6 -11 -2 -20
0 -20 6 0 5 6 9 13 9 8 0 13 10 13 23 -1 13 4 21 12 19 8 -1 11 2 7 8 -3 6
-10 8 -15 5 -4 -3 -7 2 -6 11 1 8 9 20 17 25 11 7 10 9 -6 9 -14 0 -16 3 -8 8
7 4 11 18 8 30 -2 13 0 20 6 17 5 -4 7 -10 4 -15 -3 -5 0 -12 6 -16 7 -4 9 -3
5 4 -3 6 -1 14 4 17 7 5 5 11 -6 19 -15 12 -15 13 1 29 9 10 21 14 27 11 6 -4
8 -2 5 4 -4 5 -17 8 -30 6 -15 -3 -13 -1 7 7 20 8 25 14 15 19 -20 13 -21 43
-1 35 13 -5 12 -2 -3 15 -18 20 -18 20 -1 14 17 -6 17 -5 6 17 -13 23 -12 23
6 9 18 -15 18 -14 1 12 -12 19 -14 29 -5 34 6 4 8 3 5 -3 -4 -6 0 -13 8 -17 8
-3 17 0 21 6 4 6 3 8 -3 5 -6 -4 -13 4 -16 19 -3 17 -1 24 8 21 6 -3 12 1 12
9 0 8 -6 13 -13 10 -8 -3 -16 0 -20 6 -4 6 -3 8 2 5 6 -3 16 -2 24 4 13 7 13
9 0 9 -13 0 -13 2 -1 9 8 5 16 17 17 25 1 9 -2 14 -7 10 -5 -3 -6 -10 -3 -16
4 -7 2 -8 -4 -4 -9 5 -7 14 5 31 10 12 22 20 27 17 5 -3 6 0 2 7 -6 9 -11 9
-21 1 -11 -9 -12 -7 -8 9 3 12 8 19 12 17 3 -2 13 3 21 12 13 14 12 15 -3 9
-20 -7 -21 -3 -6 24 5 11 15 16 21 13 7 -4 8 -3 4 5 -4 6 -11 9 -16 6 -5 -3
-12 0 -16 6 -4 7 -3 9 3 6 6 -4 16 0 23 8 11 13 10 14 -3 9 -11 -4 -15 0 -13
12 2 10 11 21 22 25 15 6 16 8 2 8 -17 1 -19 24 -3 38 4 4 5 2 1 -4 -5 -9 -2
-11 8 -7 12 5 13 9 3 19 -7 7 -16 10 -21 7 -5 -3 -6 0 -2 6 4 6 13 9 20 6 8
-3 17 0 22 7 4 7 3 10 -2 6 -6 -3 -16 -2 -24 4 -13 7 -12 9 2 9 21 0 41 52 29
75 -13 25 -9 36 11 29 18 -5 19 -4 7 9 -8 8 -18 12 -23 9 -5 -3 -6 0 -3 6 4 5
16 8 27 5 12 -3 20 0 20 6 0 7 -4 10 -9 7 -10 -6 -25 24 -16 32 3 3 5 1 5 -5
0 -5 7 -10 15 -10 10 0 12 4 5 12 -5 6 -5 16 2 25 8 12 9 12 4 -3 -3 -11 -2
-16 4 -12 6 3 10 13 10 21 0 8 9 33 21 55 16 32 25 40 40 36 17 -5 18 -3 8 9
-10 12 -9 13 7 8 10 -4 16 -3 11 1 -9 11 31 55 50 55 9 0 11 -5 7 -12 -4 -8
-3 -10 2 -5 5 5 9 14 9 20 0 7 8 11 18 11 9 -1 14 2 11 7 -11 18 7 29 28 18
12 -6 18 -7 14 -1 -3 5 1 13 10 16 12 5 15 2 10 -9 -3 -10 -2 -13 5 -10 6 4 8
13 5 21 -3 7 -1 16 4 19 4 3 11 -1 13 -7 3 -8 6 -6 6 5 1 9 6 17 12 17 5 0 7
-6 3 -12 -4 -7 -4 -10 1 -6 4 4 14 3 22 -3 10 -9 18 -8 31 4 9 9 22 16 27 16
6 1 11 6 11 11 1 6 2 13 3 17 0 3 10 -2 21 -12 20 -18 77 -28 85 -15 3 4 -9 6
-25 5 -18 -2 -35 4 -42 14 -12 14 -11 14 5 2 14 -11 17 -11 17 0 0 9 3 10 8 3
4 -6 19 -10 34 -9 15 1 25 -2 22 -7 -3 -5 12 -7 36 -4 33 3 40 2 36 -10 -3 -8
-1 -14 3 -14 5 0 12 8 16 18 6 15 8 15 25 -5 17 -22 37 -33 26 -15 -3 5 2 9
10 9 9 0 13 -6 9 -16 -4 -9 5 -6 21 9 l28 25 -19 -30 c-15 -25 -16 -28 -2 -16
13 11 17 11 17 1 0 -8 3 -10 7 -7 3 4 12 2 19 -4 8 -7 14 -6 20 2 5 8 3 10 -7
4 -8 -5 -10 -4 -6 0 10 11 39 16 32 5 -6 -10 21 -21 29 -12 4 3 17 7 29 9 17
2 19 1 7 -6 -8 -5 -18 -7 -24 -4 -5 3 -6 1 -3 -5 6 -8 42 -10 42 -2 0 1 13 3
28 4 18 2 33 -4 41 -16 9 -12 16 -16 21 -9 3 6 12 11 18 11 7 0 6 -4 -3 -10
-12 -8 -11 -10 8 -11 31 -2 35 -3 51 -13 10 -6 12 -5 7 2 -4 7 -1 12 8 12 9 0
16 -6 16 -12 0 -9 4 -8 10 2 6 10 10 11 10 3 0 -16 37 -17 42 -1 3 7 7 5 11
-6 4 -9 3 -15 -1 -12 -5 3 -9 -1 -9 -9 0 -13 4 -12 19 2 20 18 25 5 6 -17 -10
-11 -9 -11 6 0 14 11 20 12 23 3 3 -9 10 -9 28 -1 19 8 27 7 39 -4 9 -9 29
-14 55 -12 33 2 41 -1 41 -14 0 -10 3 -13 8 -7 10 15 31 12 42 -5 8 -12 10
-12 10 -1 0 11 3 11 15 1 8 -6 18 -9 24 -6 14 9 42 -5 34 -18 -4 -7 -1 -7 9 1
8 7 18 10 22 6 4 -4 4 1 0 12 -7 20 -6 20 9 0 8 -11 13 -24 10 -28 -3 -5 4 -4
16 2 15 8 32 9 55 2 19 -5 37 -6 40 -3 3 3 6 1 6 -5 0 -6 7 -13 14 -16 11 -4
13 -1 10 11 -5 15 -4 15 8 2 7 -9 22 -14 33 -12 16 2 17 1 5 -7 -9 -7 -10 -11
-3 -11 6 0 15 5 18 10 8 13 25 13 25 -1 0 -5 -6 -7 -12 -3 -10 6 -10 5 -1 -8
7 -8 9 -19 5 -24 -4 -4 1 -2 10 5 9 7 23 9 29 5 8 -5 9 -3 5 5 -5 7 -15 10
-25 6 -12 -5 -13 -4 -4 6 9 9 18 8 37 -5 15 -9 26 -12 26 -6 0 5 5 10 11 10 5
0 8 -4 5 -9 -3 -5 5 -8 19 -8 14 0 22 3 19 8 -9 16 3 10 17 -8 12 -14 12 -16
0 -8 -10 6 -12 4 -7 -4 6 -9 12 -9 25 3 20 18 37 20 45 7 4 -5 -3 -7 -14 -4
-12 3 -20 0 -20 -7 0 -7 13 -10 34 -9 19 2 39 -1 43 -5 5 -5 2 -6 -6 -1 -10 5
-12 4 -7 -3 5 -9 13 -9 27 -2 17 10 22 7 21 -10 0 -4 10 -6 23 -6 13 0 22 3
19 7 -2 4 1 11 7 15 8 4 9 3 5 -4 -4 -7 -2 -12 4 -12 6 0 8 -5 4 -12 -4 -6 -3
-8 4 -4 6 3 13 2 16 -3 4 -6 18 -6 35 -1 17 4 34 4 42 -2 11 -8 10 -9 -3 -4
-24 7 -23 -1 2 -14 11 -6 19 -7 18 -3 -2 4 2 8 7 8 6 0 9 -2 8 -5 -1 -3 19 -3
43 -2 27 3 42 8 37 15 -3 6 -1 7 6 3 9 -6 9 -11 -1 -24 -10 -12 -10 -14 0 -8
7 4 12 2 12 -6 0 -11 2 -11 9 0 6 11 11 10 25 -3 9 -9 16 -12 16 -6 0 5 9 9
19 8 13 -1 17 -6 13 -17 -5 -12 -1 -12 22 4 16 10 26 14 23 9 -3 -5 4 -15 15
-22 17 -11 20 -11 16 1 -4 8 2 13 17 13 13 0 23 -2 23 -5 0 -3 0 -14 1 -25 2
-18 3 -18 12 4 8 19 12 21 24 11 12 -10 19 -10 33 1 15 13 16 12 3 -4 -8 -10
-20 -16 -27 -13 -7 3 -15 -2 -18 -9 -4 -11 0 -12 19 -5 18 7 28 5 40 -6 8 -9
15 -11 15 -6 0 15 39 22 48 9 4 -7 13 -12 20 -13 39 -3 43 -5 36 -16 -4 -7 -3
-8 4 -4 6 4 8 14 5 23 -6 15 -5 16 9 3 9 -8 14 -19 11 -24 -3 -4 7 0 23 10 15
11 25 14 21 8 -3 -6 3 -20 15 -30 12 -11 18 -14 15 -8 -4 8 4 13 23 16 17 3
27 0 23 -6 -4 -5 1 -7 10 -3 16 6 22 -3 18 -26 -1 -4 10 0 24 9 18 12 25 13
23 4 -2 -7 3 -15 10 -17 8 -3 10 2 6 14 -5 16 -4 16 8 2 7 -9 23 -21 36 -28
19 -10 23 -9 29 4 5 13 7 14 14 3 10 -16 29 -18 47 -4 11 7 13 5 10 -8 -2 -12
4 -20 15 -21 20 -4 22 6 5 24 -10 10 -8 10 10 0 13 -8 20 -20 17 -29 -3 -9 1
-7 10 4 9 12 15 15 15 7 0 -9 10 -12 29 -9 18 3 27 0 25 -6 -2 -6 7 -11 20
-11 13 0 22 3 20 6 -10 17 33 1 44 -16 10 -15 12 -16 8 -3 -3 10 0 20 6 24 7
4 8 3 4 -4 -4 -7 -2 -12 4 -12 6 0 8 -4 5 -10 -4 -6 4 -6 22 1 22 8 30 7 39
-6 12 -17 59 -31 49 -14 -4 5 -1 9 4 9 6 0 11 -4 11 -10 0 -5 6 -9 13 -7 6 1
11 -4 9 -11 -1 -8 2 -11 7 -7 6 3 7 13 4 22 -5 13 -3 13 20 -2 15 -9 24 -22
20 -28 -3 -6 -1 -7 6 -3 6 4 9 12 6 17 -11 16 7 10 20 -8 12 -15 89 -27 79
-12 -8 14 51 -2 62 -16 13 -17 29 -21 19 -5 -12 19 7 10 26 -12 l18 -23 1 24
c0 23 1 23 13 7 13 -17 32 -21 79 -13 17 3 25 0 21 -6 -4 -6 0 -8 11 -4 9 4
15 3 12 -2 -3 -5 1 -12 10 -15 8 -3 12 -2 9 4 -3 5 1 7 9 4 9 -3 14 -11 13
-17 -2 -14 33 -17 51 -4 8 6 12 6 12 -2 0 -6 5 -11 11 -11 5 0 8 4 5 8 -2 4 4
8 14 8 11 0 17 -2 15 -5 -3 -2 3 -10 12 -16 12 -9 22 -10 34 -2 13 8 21 6 34
-6 19 -19 31 -21 40 -7 3 5 0 7 -8 4 -8 -3 -17 -1 -21 4 -3 5 5 8 17 7 15 -1
21 -7 19 -20 -3 -16 -2 -17 12 -6 12 10 16 11 16 1 0 -9 4 -9 17 1 9 8 14 9
10 3 -4 -7 0 -14 8 -18 8 -3 14 -2 14 2 -4 23 4 24 17 2 8 -14 13 -17 10 -8
-3 12 -1 15 9 12 8 -3 16 -13 18 -22 4 -14 5 -14 6 2 1 16 3 16 22 -5 11 -13
18 -18 14 -11 -4 8 2 12 17 12 18 0 20 -2 8 -10 -8 -5 -10 -10 -5 -10 6 0 16
5 23 12 9 9 12 9 12 -1 0 -11 3 -11 17 0 9 8 14 9 11 4 -4 -6 2 -16 12 -23 14
-9 21 -9 26 0 4 7 3 8 -4 4 -8 -5 -10 -1 -5 9 4 12 8 13 13 5 4 -7 12 -10 18
-6 6 4 23 -6 38 -21 14 -16 24 -23 20 -17 -9 17 20 25 33 10 6 -7 8 -16 4 -20
-4 -4 0 -4 10 0 9 3 17 10 17 16 0 5 -4 7 -8 4 -5 -3 -9 2 -9 11 0 13 4 12 18
-5 21 -27 30 -28 23 -5 -5 16 -4 16 5 2 12 -18 91 -25 91 -8 0 6 -5 7 -12 3
-7 -5 -8 -3 -3 6 6 10 12 7 26 -11 10 -14 17 -17 16 -9 -1 8 0 15 3 15 3 0 18
8 32 17 19 13 29 15 34 6 4 -7 3 -8 -4 -4 -8 5 -10 1 -5 -10 5 -14 8 -12 20
10 12 22 33 28 33 10 0 -3 -5 -2 -12 2 -7 4 -8 3 -4 -5 10 -16 29 -2 21 16 -5
14 -3 14 12 2 11 -9 14 -10 9 -1 -4 7 0 14 11 18 25 8 62 26 41 20 -10 -3 -20
0 -24 6 -4 7 -3 8 4 4 7 -4 12 -2 12 4 0 6 5 8 10 5 6 -3 10 -1 10 5 0 6 4 8
10 5 6 -4 7 1 3 11 -4 12 -3 15 6 10 8 -5 10 0 7 17 -3 16 1 24 10 24 9 0 11
-4 4 -12 -7 -8 -5 -12 3 -12 7 0 14 9 14 19 1 10 -3 18 -8 18 -6 0 -7 5 -4 10
5 8 12 7 23 -2 14 -12 14 -10 -1 11 -15 23 -15 25 1 38 9 8 12 12 5 9 -6 -4
-14 -2 -18 4 -3 5 1 10 10 10 9 0 13 5 10 10 -4 6 -10 8 -15 5 -11 -7 -7 22 5
32 4 5 5 1 0 -7 -5 -8 -4 -12 0 -7 15 13 15 39 0 34 -9 -4 -11 4 -8 30 3 20 1
33 -4 30 -5 -4 -10 0 -10 8 0 8 4 12 8 9 4 -2 11 1 15 7 4 7 3 9 -4 5 -6 -3
-13 -2 -17 4 -4 6 -12 7 -18 3 -7 -4 -5 2 3 12 9 11 10 16 3 11 -7 -4 -13 -3
-13 3 0 5 6 12 13 15 6 3 2 3 -10 0 -18 -4 -21 -1 -18 16 4 19 2 20 -11 9 -8
-7 -14 -8 -13 -3 5 26 -1 36 -15 25 -11 -9 -16 -9 -22 0 -4 7 -3 9 3 6 6 -4
13 -1 16 7 4 10 -1 13 -18 11 -20 -2 -23 1 -15 16 7 12 6 20 -2 25 -6 4 -8 3
-5 -3 4 -6 0 -13 -8 -17 -9 -3 -15 0 -15 9 0 7 -5 17 -12 21 -7 5 -9 2 -6 -7
4 -10 -1 -15 -13 -15 -12 0 -15 4 -9 10 17 17 11 24 -15 21 -16 -1 -25 3 -25
11 0 17 -20 19 -21 2 0 -7 -5 -3 -11 10 -6 12 -16 22 -22 22 -6 0 -5 -5 2 -12
7 -7 12 -16 12 -22 0 -5 -8 0 -17 11 -10 10 -28 19 -40 20 -41 1 -44 3 -37 14
4 8 0 8 -15 0 -14 -8 -21 -8 -21 -1 0 5 -5 10 -11 10 -5 0 -7 -5 -4 -10 9 -15
-4 -12 -20 4 -8 7 -12 16 -10 20 3 3 -1 2 -7 -4 -7 -5 -19 -10 -28 -10 -13 0
-13 1 0 10 9 6 10 10 3 10 -6 0 -15 -5 -18 -11 -5 -7 -15 -5 -31 6 -18 11 -24
12 -24 3 -1 -8 -6 -7 -14 5 -7 9 -16 17 -19 17 -4 0 -4 -8 0 -17 5 -16 4 -15
-9 1 -8 10 -20 16 -25 13 -6 -4 -14 0 -17 8 -5 14 -9 14 -31 -1 -14 -9 -25
-13 -24 -8 6 33 -15 41 -50 20 -10 -6 -12 -5 -7 2 4 7 2 13 -3 13 -6 1 -17 2
-23 3 -7 1 -19 -3 -27 -8 -11 -8 -13 -8 -7 2 4 6 2 12 -3 12 -6 0 -11 -6 -11
-12 0 -7 -5 -5 -11 5 -7 12 -17 16 -31 11 -16 -5 -19 -3 -13 7 5 8 -1 6 -12
-4 -16 -14 -20 -14 -20 -2 0 8 3 12 7 10 4 -2 7 2 7 9 0 11 -4 12 -18 3 -13
-8 -25 -8 -46 3 -15 8 -32 16 -38 19 -5 3 -4 -2 2 -10 10 -13 10 -16 -2 -16
-8 0 -15 4 -15 9 0 5 -6 8 -12 7 -30 -4 -59 2 -54 10 3 5 0 14 -8 20 -10 8
-16 8 -26 -3 -10 -13 -8 -15 9 -11 12 2 19 0 16 -5 -6 -10 -23 -8 -51 8 -12 6
-24 8 -28 5 -3 -3 -6 -1 -6 5 0 5 6 12 13 15 6 2 0 4 -15 3 -20 -1 -24 -4 -16
-14 8 -9 7 -11 -6 -6 -9 3 -16 9 -16 13 0 3 -13 6 -30 6 -16 0 -30 -4 -30 -9
0 -5 -3 -6 -6 -3 -4 4 -1 13 5 21 9 11 9 16 0 22 -7 4 -10 3 -7 -2 7 -10 -11
-27 -32 -32 -11 -3 -11 0 0 13 7 8 10 18 6 22 -3 3 -6 0 -6 -8 -1 -10 -5 -8
-16 6 -16 19 -16 19 -9 -5 l7 -25 -21 22 c-12 12 -27 20 -34 18 -6 -2 -24 -6
-39 -9 -21 -4 -26 -1 -21 11 5 12 3 14 -8 8 -19 -12 -49 -14 -55 -3 -3 4 -10
5 -16 2 -7 -4 -8 -2 -4 4 4 7 1 12 -9 12 -10 0 -13 -5 -9 -12 4 -7 3 -8 -5 -4
-6 4 -9 11 -6 16 3 4 -2 11 -11 14 -10 4 -13 2 -8 -6 5 -8 2 -9 -10 -5 -10 4
-20 7 -22 7 -3 0 -3 4 0 8 2 4 -4 8 -14 8 -14 0 -16 -3 -8 -13 15 -19 2 -16
-17 4 -14 14 -21 14 -37 4 -18 -11 -18 -10 -8 9 10 19 10 20 -8 9 -16 -10 -23
-10 -37 4 -20 20 -32 23 -16 4 8 -11 6 -13 -9 -12 -11 1 -23 5 -27 10 -5 4 -2
5 5 1 6 -4 12 -3 12 3 0 17 -34 18 -60 2 -24 -15 -25 -15 -10 4 8 11 10 17 6
13 -5 -4 -16 -2 -24 4 -19 16 -49 21 -33 5 6 -6 11 -16 11 -21 0 -6 -4 -5 -9
3 -5 7 -22 14 -39 14 -17 1 -28 5 -26 9 6 9 -9 12 -40 8 -13 -1 -16 2 -10 12
6 10 4 10 -9 -1 -16 -12 -22 -8 -18 12 1 5 -3 6 -9 2 -6 -3 -8 -10 -5 -15 3
-5 0 -12 -6 -16 -7 -4 -9 -3 -5 4 3 5 0 13 -6 15 -10 4 -9 8 2 16 8 6 10 11 4
11 -6 0 -17 -7 -24 -15 -7 -8 -16 -12 -21 -9 -5 3 -9 -1 -9 -8 0 -9 -3 -9 -10
2 -5 8 -10 20 -10 25 0 6 5 3 10 -5 5 -8 10 -10 10 -5 0 6 -5 17 -10 25 -6 10
-10 11 -10 3 0 -7 -10 -13 -23 -13 -13 0 -29 -6 -37 -12 -12 -11 -12 -10 -1 5
16 20 9 22 -22 5 -21 -10 -21 -10 -7 7 14 17 14 18 -9 6 -23 -13 -24 -12 -18
10 l6 24 -19 -25 c-18 -23 -19 -23 -16 -4 3 16 -1 21 -17 20 -12 -1 -28 -5
-35 -10 -9 -5 -15 -1 -19 13 -3 11 -9 18 -14 16 -4 -3 -5 -13 -2 -22 6 -15 5
-16 -9 -3 -9 8 -13 20 -10 25 3 6 -2 4 -11 -4 -14 -11 -17 -11 -17 0 0 11 -2
11 -10 -1 -5 -8 -10 -10 -10 -4 0 7 -7 15 -16 18 -15 6 -15 4 -3 -11 9 -11 10
-14 2 -9 -7 4 -22 9 -33 11 -11 2 -32 16 -46 32 -15 15 -20 19 -13 9 12 -18
12 -19 -3 -13 -11 4 -16 1 -14 -6 1 -7 1 -9 -1 -4 -3 4 -11 7 -19 7 -8 0 -14
5 -14 10 0 6 -5 10 -11 10 -5 0 -7 -5 -3 -11 4 -8 0 -8 -15 0 -16 9 -26 9 -42
0 -15 -8 -19 -8 -15 0 4 6 2 11 -4 11 -6 0 -8 6 -4 13 5 9 4 9 -6 0 -10 -9
-16 -8 -27 3 -8 8 -19 12 -24 9 -5 -4 -9 -2 -9 3 0 5 -7 9 -15 9 -21 0 -3 -18
21 -21 10 -2 20 -9 22 -17 3 -11 2 -12 -6 -1 -5 8 -11 13 -13 11 -9 -5 -49 13
-49 22 0 5 -5 9 -11 9 -5 0 -7 -6 -3 -12 4 -7 -3 -4 -15 6 -22 20 -22 20 -15
0 7 -17 6 -18 -11 -4 -19 15 -22 15 -42 -2 -9 -7 -15 -3 -22 15 -5 14 -15 28
-22 33 -8 4 -10 3 -5 -4 5 -8 -1 -12 -16 -12 -18 0 -20 2 -8 10 12 7 10 9 -7
7 -12 0 -19 -5 -17 -9 3 -4 0 -8 -5 -8 -6 0 -11 4 -11 8 0 5 -21 8 -46 8 -25
-1 -48 3 -52 8 -3 5 1 6 9 1 12 -7 12 -6 0 6 -12 12 -14 12 -19 0 -3 -10 -8
-7 -18 10 -7 13 -13 18 -14 12 0 -7 -8 -13 -17 -13 -15 0 -16 2 -3 10 21 13 3
13 -22 -1 -18 -10 -20 -9 -14 7 6 15 5 17 -5 7 -15 -15 -33 -17 -24 -3 3 6 -1
7 -9 4 -9 -3 -16 -10 -16 -16 0 -5 -5 -6 -11 -3 -6 5 -4 12 8 22 12 10 8 9
-11 -2 -16 -9 -26 -13 -22 -7 9 15 -35 39 -67 36 -15 -2 -25 1 -23 5 3 4 -1 8
-9 8 -8 0 -12 -4 -10 -8 3 -4 -2 -10 -11 -13 -8 -3 -12 -2 -9 4 3 6 -1 10 -9
10 -9 0 -16 -5 -16 -12 0 -6 -3 -8 -6 -5 -4 4 -2 12 4 20 8 10 6 13 -8 13 -10
0 -16 -5 -13 -10 4 -5 -4 -7 -17 -3 -13 3 -30 1 -38 -5 -10 -9 -12 -8 -10 3 2
8 -5 14 -14 14 -9 0 -20 3 -23 7 -4 4 7 5 24 3 17 -2 31 -1 31 3 0 4 -16 8
-35 9 -20 0 -35 -4 -35 -11 0 -8 -3 -7 -8 1 -8 13 -29 12 -51 -1 -10 -6 -12
-5 -7 2 4 7 1 12 -9 12 -10 0 -13 5 -9 13 5 7 0 6 -11 -3 -10 -8 -16 -10 -12
-4 7 12 -11 24 -45 30 -9 2 -19 0 -22 -4 -3 -5 5 -8 17 -7 21 2 37 -10 37 -28
0 -5 -7 -1 -16 8 -9 9 -23 14 -31 11 -9 -4 -17 1 -20 14 -5 19 -6 20 -20 3 -8
-10 -12 -12 -8 -5 6 12 -5 16 -37 13 -9 -1 -19 3 -23 9 -5 8 -11 7 -23 -2 -12
-10 -14 -10 -8 0 4 7 1 12 -8 12 -9 0 -16 -6 -16 -12 0 -8 -3 -9 -8 -3 -10 14
-32 17 -32 4 0 -5 -12 3 -26 18 -21 22 -25 24 -20 8 5 -17 3 -16 -15 5 -11 14
-18 19 -14 13 3 -7 1 -13 -4 -13 -6 0 -11 5 -11 12 0 6 -6 3 -14 -8 -14 -19
-14 -19 -13 1 2 14 -3 19 -17 17 -10 -2 -16 1 -12 6 3 5 -1 9 -8 9 -8 0 -12
-7 -9 -16 4 -13 2 -13 -10 2 -15 18 -32 24 -22 7 11 -18 -7 -10 -26 12 -16 17
-19 18 -19 5 0 -10 5 -17 12 -17 6 0 9 -2 6 -5 -9 -10 -38 7 -31 18 4 6 -2 8
-15 5 -13 -4 -22 -1 -22 5 0 8 -3 8 -8 2 -10 -14 -42 -18 -42 -5 0 6 5 8 10 5
6 -3 10 -2 10 3 0 6 -7 13 -16 16 -8 3 -12 2 -9 -4 3 -6 1 -10 -5 -10 -6 0 -8
-5 -4 -12 4 -6 3 -8 -4 -4 -6 3 -9 15 -7 26 2 12 0 18 -6 14 -5 -3 -17 0 -26
8 -9 7 -14 8 -11 3 4 -6 3 -17 -3 -25 -7 -12 -9 -12 -9 4 0 15 -3 16 -14 7
-11 -9 -16 -9 -22 0 -5 8 -3 9 6 4 9 -5 11 -4 6 4 -5 7 -12 9 -19 3 -7 -5 -23
-9 -37 -10 -19 -1 -21 1 -10 8 13 8 13 10 -2 10 -9 0 -19 -6 -21 -12 -4 -8 -6
-7 -6 3 -1 9 -8 20 -17 23 -14 5 -15 4 -5 -8 9 -11 9 -16 0 -22 -8 -4 -9 -3
-5 4 4 7 1 13 -6 13 -15 1 -31 5 -38 8 -8 4 -44 12 -57 13 -7 1 -13 6 -13 12
0 6 -5 4 -10 -4 -5 -8 -10 -10 -10 -4 0 19 -39 24 -55 7 -8 -8 -15 -11 -15 -6
0 5 5 14 10 19 7 7 6 11 -5 11 -8 0 -15 -4 -15 -8 0 -4 -9 -7 -20 -6 -12 1
-18 7 -16 14 3 7 0 15 -6 19 -7 4 -8 3 -4 -4 4 -7 2 -12 -3 -12 -6 0 -11 4
-11 9 0 11 -19 9 -39 -3 -9 -6 -12 -5 -8 1 4 6 0 13 -8 16 -10 4 -12 1 -8 -11
6 -15 5 -15 -10 -3 -13 11 -17 11 -17 1 0 -8 -3 -10 -6 -7 -4 4 -1 13 6 22 11
13 10 14 -5 9 -14 -6 -16 -4 -10 7 8 12 6 12 -8 0 -9 -7 -17 -10 -17 -5 0 4
-5 3 -12 -4 -15 -15 -28 -15 -28 -1 0 5 6 7 13 3 7 -5 6 0 -3 11 -13 16 -15
16 -18 2 -2 -10 -8 -17 -14 -17 -5 0 -8 6 -5 14 4 10 0 12 -14 9 -11 -3 -16
-10 -12 -17 5 -8 3 -8 -8 1 -8 6 -18 11 -22 11 -5 0 -12 4 -15 8 -4 4 -2 4 5
0 6 -3 14 -2 17 3 4 5 -2 8 -11 6 -10 -2 -22 -4 -26 -4 -5 -1 -6 -5 -3 -10 4
-5 -5 -4 -18 2 -13 7 -22 15 -20 19 3 5 -5 8 -18 8 -13 0 -29 5 -35 11 -9 9
-10 7 -6 -10 3 -12 1 -21 -6 -21 -6 0 -10 3 -10 8 1 4 1 14 0 22 -1 13 -2 13
-11 0 -6 -10 -10 -11 -10 -2 0 6 -7 12 -15 12 -8 0 -15 -5 -15 -11 0 -6 -7 -3
-16 5 -19 20 -31 21 -15 2z m371 -71 c0 -2 -6 -8 -13 -14 -10 -8 -14 -7 -14 2
0 8 6 14 14 14 7 0 13 -1 13 -2z m570 -126 c0 -6 -4 -7 -10 -4 -5 3 -10 11
-10 16 0 6 5 7 10 4 6 -3 10 -11 10 -16z m991 -206 c12 -16 12 -17 -2 -6 -9 7
-20 9 -24 5 -5 -4 -5 -1 -1 6 9 16 11 15 27 -5z m38 -17 c-3 -3 -11 5 -18 17
-13 21 -12 21 5 5 10 -10 16 -20 13 -22z m781 -146 c0 -5 -5 -10 -11 -10 -5 0
-7 5 -4 10 3 6 8 10 11 10 2 0 4 -4 4 -10z m-3090 -14 c0 -2 -7 -7 -16 -10 -8
-3 -12 -2 -9 4 6 10 25 14 25 6z m3320 -38 c0 -4 -4 -8 -9 -8 -6 0 -12 4 -15
8 -3 5 1 9 9 9 8 0 15 -4 15 -9z m428 -93 c-3 -3 -9 2 -12 12 -6 14 -5 15 5 6
7 -7 10 -15 7 -18z m-2794 -101 c3 -8 2 -12 -4 -9 -6 3 -10 10 -10 16 0 14 7
11 14 -7z m-36 -12 c13 11 14 11 10 -2 -6 -18 -30 -20 -34 -2 -1 7 0 8 3 2 3
-7 10 -7 21 2z m411 -35 c0 -9 -2 -8 -6 1 -2 6 -10 9 -15 6 -7 -4 -8 -2 -4 5
9 13 26 5 25 -12z m-1403 -84 c-3 -4 -6 -1 -6 6 0 7 -4 9 -10 6 -6 -4 -7 1 -3
11 6 15 7 15 15 -1 6 -9 7 -19 4 -22z m1849 -11 c-3 -3 -11 0 -18 7 -9 10 -8
11 6 5 10 -3 15 -9 12 -12z m3135 13 c0 -2 -6 -8 -13 -14 -10 -8 -14 -7 -14 2
0 8 6 14 14 14 7 0 13 -1 13 -2z m57 -27 c-3 -8 -6 -5 -6 6 -1 11 2 17 5 13 3
-3 4 -12 1 -19z m-3107 6 c0 -8 -19 -13 -24 -6 -3 5 1 9 9 9 8 0 15 -2 15 -3z
m860 -179 c0 -12 -19 -12 -23 0 -4 9 -1 12 9 8 7 -3 14 -7 14 -8z m-2845 -15
c-3 -5 -11 -10 -16 -10 -6 0 -7 5 -4 10 3 6 11 10 16 10 6 0 7 -4 4 -10z m641
-72 c-6 -27 -19 -48 -29 -48 -5 0 -2 9 8 20 10 11 15 20 11 20 -4 0 -4 5 -1
10 9 14 14 13 11 -2z m-676 -98 c0 -5 -2 -10 -4 -10 -3 0 -8 5 -11 10 -3 6 -1
10 4 10 6 0 11 -4 11 -10z m3767 -7 c0 -8 -6 -9 -19 -2 -10 5 -18 11 -18 12 0
2 8 3 18 3 10 0 19 -6 19 -13z m57 -1 c3 -5 -1 -9 -9 -9 -8 0 -12 4 -9 9 3 4
7 8 9 8 2 0 6 -4 9 -8z m512 -118 c1 -9 0 -13 -4 -10 -3 4 -7 14 -8 22 -1 9 0
13 4 10 3 -4 7 -14 8 -22z m-4356 -14 c0 -5 -2 -10 -4 -10 -3 0 -8 5 -11 10
-3 6 -1 10 4 10 6 0 11 -4 11 -10z m4585 -20 c-3 -5 -12 -10 -18 -10 -7 0 -6
4 3 10 19 12 23 12 15 0z m155 -50 c0 -5 -5 -10 -11 -10 -5 0 -7 5 -4 10 3 6
8 10 11 10 2 0 4 -4 4 -10z m120 -20 c0 -5 -2 -10 -4 -10 -3 0 -8 5 -11 10 -3
6 -1 10 4 10 6 0 11 -4 11 -10z m608 -93 c8 -10 6 -13 -11 -14 -12 0 -16 1 -9
4 6 3 10 9 6 14 -8 14 2 11 14 -4z m-5493 -1197 c3 -5 1 -10 -4 -10 -6 0 -11
5 -11 10 0 6 2 10 4 10 3 0 8 -4 11 -10z m211 -12 c4 -7 4 -10 -1 -6 -4 4 -14
3 -22 -3 -8 -8 -13 -8 -13 -1 0 6 6 13 13 15 6 3 13 6 14 6 1 1 5 -5 9 -11z
m-146 -10 c0 -4 -4 -8 -9 -8 -6 0 -12 4 -15 8 -3 5 1 9 9 9 8 0 15 -4 15 -9z
m94 4 c3 -5 -1 -9 -9 -9 -8 0 -12 4 -9 9 3 4 7 8 9 8 2 0 6 -4 9 -8z"/>
<path d="M3846 3618 c3 -5 10 -6 15 -3 13 9 11 12 -6 12 -8 0 -12 -4 -9 -9z"/>
<path d="M3479 3583 c-1 -5 -1 -12 0 -16 1 -4 -6 -10 -14 -13 -8 -4 -15 -11
-15 -17 0 -5 8 -3 18 6 10 10 19 24 19 32 0 15 -6 21 -8 8z"/>
<path d="M4191 3554 c0 -11 3 -14 6 -6 3 7 2 16 -1 19 -3 4 -6 -2 -5 -13z"/>
<path d="M4350 3519 c0 -7 3 -9 6 -6 4 3 15 2 25 -3 10 -6 20 -6 23 -2 3 5 0
9 -7 9 -7 0 -20 4 -29 8 -12 5 -18 3 -18 -6z"/>
<path d="M4968 3395 c10 -19 62 -31 62 -14 0 5 -10 7 -22 5 -13 -1 -29 4 -36
13 -12 14 -12 14 -4 -4z"/>
<path d="M6061 3172 c-1 -7 -5 -10 -11 -7 -5 3 -10 -1 -10 -11 0 -14 2 -15 17
-3 9 8 19 13 22 12 3 -1 8 1 11 4 3 4 0 3 -7 0 -6 -4 -14 -1 -16 5 -4 10 -6
10 -6 0z"/>
<path d="M6270 3119 c0 -5 5 -7 10 -4 6 3 10 8 10 11 0 2 -4 4 -10 4 -5 0 -10
-5 -10 -11z"/>
<path d="M6446 3078 c3 -5 10 -6 15 -3 13 9 11 12 -6 12 -8 0 -12 -4 -9 -9z"/>
<path d="M7433 2880 c3 -16 21 -14 25 2 3 10 2 10 -6 -1 -7 -9 -11 -10 -15 -2
-4 7 -5 8 -4 1z"/>
<path d="M4310 2820 c6 -11 13 -20 16 -20 2 0 0 9 -6 20 -6 11 -13 20 -16 20
-2 0 0 -9 6 -20z"/>
<path d="M7800 2811 c0 -6 4 -13 10 -16 6 -3 7 1 4 9 -7 18 -14 21 -14 7z"/>
<path d="M7995 2770 c-3 -5 -1 -10 4 -10 6 0 11 5 11 10 0 6 -2 10 -4 10 -3 0
-8 -4 -11 -10z"/>
<path d="M4806 2745 c3 -6 11 -12 18 -12 8 0 12 6 10 12 -3 6 -11 12 -18 12
-8 0 -12 -6 -10 -12z"/>
<path d="M4020 2700 c-6 -11 -8 -20 -6 -20 3 0 10 9 16 20 6 11 8 20 6 20 -3
0 -10 -9 -16 -20z"/>
<path d="M8410 2686 c0 -2 8 -10 18 -17 15 -13 16 -12 3 4 -13 16 -21 21 -21
13z"/>
<path d="M8595 2649 c-4 -6 -5 -12 -2 -15 2 -3 7 2 10 11 7 17 1 20 -8 4z"/>
<path d="M3947 2635 c-4 -8 -1 -17 6 -21 7 -4 9 -4 5 1 -4 4 -3 14 3 22 7 8 8
13 1 13 -5 0 -12 -7 -15 -15z"/>
<path d="M3926 2593 c-6 -14 -5 -15 5 -6 7 7 10 15 7 18 -3 3 -9 -2 -12 -12z"/>
<path d="M5466 2602 c-2 -4 4 -8 14 -8 10 0 16 4 14 8 -3 4 -9 8 -14 8 -5 0
-11 -4 -14 -8z"/>
<path d="M3189 2533 c-13 -16 -12 -17 4 -4 16 13 21 21 13 21 -2 0 -10 -8 -17
-17z"/>
<path d="M7282 2231 c-11 -7 -11 -9 1 -14 16 -6 27 0 27 15 0 10 -11 10 -28
-1z"/>
<path d="M7580 2177 c0 -2 6 -10 14 -16 11 -9 16 -9 22 1 4 7 4 10 -1 6 -4 -4
-14 -3 -22 3 -7 6 -13 9 -13 6z"/>
<path d="M3099 2137 c6 -8 7 -18 3 -22 -4 -5 -1 -5 6 -1 10 6 10 11 1 22 -6 8
-14 14 -16 14 -3 0 0 -6 6 -13z"/>
<path d="M8414 1999 c-4 -7 -3 -9 4 -5 5 3 13 0 15 -6 4 -9 6 -10 6 -1 1 17
-16 25 -25 12z"/>
<path d="M8696 1978 c3 -4 11 -5 19 -1 21 7 19 12 -4 10 -11 0 -18 -5 -15 -9z"/>
<path d="M3010 1723 c0 -5 5 -15 10 -23 7 -12 9 -10 7 8 -1 19 -17 33 -17 15z"/>
<path d="M3000 1620 c-13 -8 -12 -10 3 -10 9 0 17 5 17 10 0 12 -1 12 -20 0z"/>
<path d="M3653 1523 c4 -3 2 -12 -4 -19 -7 -8 -7 -14 1 -19 5 -3 10 -5 11 -3
8 32 7 48 -3 48 -6 0 -8 -3 -5 -7z"/>
<path d="M2980 1499 c0 -5 5 -7 10 -4 6 3 10 8 10 11 0 2 -4 4 -10 4 -5 0 -10
-5 -10 -11z"/>
<path d="M2960 1481 c0 -6 4 -13 10 -16 6 -3 7 1 4 9 -7 18 -14 21 -14 7z"/>
<path d="M3630 1399 c0 -5 5 -7 10 -4 6 3 10 8 10 11 0 2 -4 4 -10 4 -5 0 -10
-5 -10 -11z"/>
<path d="M2910 1099 c0 -5 5 -7 10 -4 6 3 10 8 10 11 0 2 -4 4 -10 4 -5 0 -10
-5 -10 -11z"/>
</g>
</svg>
